<svg width="110"  viewBox="0 0 130 72" fill="none" xmlns="http://www.w3.org/2000/svg">
<mask id="path-1-inside-1_102_20" fill="white">
<path d="M8.17409 43.0127L30.2976 8.55926H38.1778L46.5965 43.0127H38.6673L32.0107 12.4968H35.1432L16.6417 43.0127H8.17409ZM17.3269 35.6298L20.5574 29.5759H108.46L39.62 34.5962L17.3269 35.6298Z"/>
<path d="M56.0859 43.4003C53.6263 43.4003 51.5155 42.8835 49.7535 41.8499C48.0282 40.7794 46.7984 39.2474 46.0642 37.254C45.33 35.2238 45.2566 32.7505 45.844 29.8343L49.0927 16.3297L56.0859 13.4443L52.7269 29.6681C52.2864 32.0676 52.5067 33.9502 53.3877 35.316C54.3054 36.645 55.9574 37.3094 58.3435 37.3094C60.803 37.3094 62.8587 36.608 64.5106 35.2053C66.1993 33.8026 67.3189 31.6615 67.8695 28.7822L70.8746 15.3823L77.7811 13.4443L71.9443 43.0127H65.3917L67.0436 34.5962L68.1449 37.254C66.7499 39.3582 64.9879 40.9086 62.8587 41.9053C60.7663 42.902 58.5087 43.4003 56.0859 43.4003Z"/>
<path d="M84.2601 43.4003C82.3512 43.4003 80.6993 42.9942 79.3043 42.1821C77.9461 41.3331 76.9549 40.1518 76.3309 38.6383C75.7435 37.0879 75.6518 35.2607 76.0556 33.1566L81.0578 8.55926L87.9494 6.94325L82.9386 33.1012C82.7183 34.467 82.8651 35.5744 83.3791 36.4235C83.893 37.2725 84.8658 37.697 86.2975 37.697C86.9582 37.697 87.619 37.6047 88.2798 37.4202C88.9772 37.1987 89.6013 36.9034 90.1519 36.5342L91.3633 41.6284C90.3355 42.2929 89.1975 42.7543 87.9494 43.0127C86.7013 43.2711 85.4715 43.4003 84.2601 43.4003ZM74.0733 19.2029L77.7811 13.4443H94.6972L93.621 19.2029H74.0733Z"/>
<path d="M102.445 43.4003C99.5816 43.4003 97.067 42.865 94.9012 41.7945C92.7721 40.6871 91.1201 39.1736 89.9454 37.254C88.7708 35.2976 88.1834 33.0089 88.1834 30.388C88.1834 27.0657 88.9359 24.1125 90.441 21.5285C91.9461 18.9076 94.0018 16.8588 96.6082 15.3823C99.2513 13.8688 102.261 13.112 105.639 13.112C108.539 13.112 111.053 13.6473 113.182 14.7178C115.348 15.7514 117.019 17.2465 118.193 19.2029C119.368 21.1225 119.955 23.4112 119.955 26.069C119.955 29.3544 119.203 32.3075 117.698 34.9284C116.193 37.5494 114.119 39.6166 111.475 41.1301C108.869 42.6436 105.859 43.4003 102.445 43.4003ZM102.885 37.4755C104.868 37.4755 106.611 37.0141 108.117 36.0912C109.622 35.1315 110.815 33.821 111.696 32.1599C112.577 30.4987 113.017 28.5792 113.017 26.4012C113.017 24.1125 112.338 22.3037 110.98 20.9748C109.622 19.6459 107.713 18.9814 105.253 18.9814C103.308 18.9814 101.564 19.4613 100.022 20.4211C98.5171 21.3439 97.324 22.636 96.443 24.2971C95.562 25.9582 95.1215 27.8778 95.1215 30.0557C95.1215 32.3814 95.8006 34.2086 97.1588 35.5375C98.5171 36.8295 100.426 37.4755 102.885 37.4755Z"/>
<path d="M5.80371 61.8574V47.8607H12.1667C13.4392 47.8607 14.5329 48.0673 15.4476 48.4806C16.3755 48.8938 17.0913 49.4937 17.595 50.2802C18.0988 51.0533 18.3506 51.9731 18.3506 53.0395C18.3506 54.0926 18.0988 55.0057 17.595 55.7789C17.0913 56.552 16.3755 57.1519 15.4476 57.5785C14.5329 57.9917 13.4392 58.1983 12.1667 58.1983H7.99097L9.74078 56.4787V61.8574H5.80371ZM9.74078 56.8986L7.99097 55.079H11.928C12.7499 55.079 13.3597 54.8991 13.7574 54.5392C14.1683 54.1792 14.3738 53.6794 14.3738 53.0395C14.3738 52.3863 14.1683 51.8798 13.7574 51.5199C13.3597 51.16 12.7499 50.98 11.928 50.98H7.99097L9.74078 49.1604V56.8986Z"/>
<path d="M19.0772 61.8574V47.8607H25.4401C26.7127 47.8607 27.8064 48.0673 28.721 48.4806C29.649 48.8938 30.3648 49.4937 30.8685 50.2802C31.3723 51.0533 31.6241 51.9731 31.6241 53.0395C31.6241 54.0926 31.3723 55.0057 30.8685 55.7789C30.3648 56.5387 29.649 57.1252 28.721 57.5385C27.8064 57.9384 26.7127 58.1383 25.4401 58.1383H21.2645L23.0143 56.4787V61.8574H19.0772ZM27.6871 61.8574L24.2272 56.7586H28.4228L31.9025 61.8574H27.6871ZM23.0143 56.8986L21.2645 55.079H25.2015C26.0234 55.079 26.6332 54.8991 27.0309 54.5392C27.4418 54.1792 27.6473 53.6794 27.6473 53.0395C27.6473 52.3863 27.4418 51.8798 27.0309 51.5199C26.6332 51.16 26.0234 50.98 25.2015 50.98H21.2645L23.0143 49.1604V56.8986Z"/>
<path d="M36.222 53.2795H42.6844V56.2388H36.222V53.2795ZM36.5004 58.7982H43.778V61.8574H32.6031V47.8607H43.5195V50.92H36.5004V58.7982Z"/>
<path d="M44.7698 61.8574V47.8607H48.0109L53.7773 57.3785H52.0673L57.6746 47.8607H60.9157L60.9555 61.8574H57.3366L57.2968 53.3994H57.9132L53.7177 60.4778H51.9678L47.653 53.3994H48.4086V61.8574H44.7698Z"/>
<path d="M62.5483 61.8574V47.8607H66.4853V61.8574H62.5483Z"/>
<path d="M74.5159 62.1374C72.4612 62.1374 70.8572 61.5709 69.7039 60.4378C68.5507 59.3047 67.974 57.6984 67.974 55.6189V47.8607H71.9111V55.4989C71.9111 56.6987 72.1431 57.5585 72.607 58.0783C73.0843 58.5982 73.7338 58.8582 74.5557 58.8582C75.3776 58.8582 76.0205 58.5982 76.4845 58.0783C76.9484 57.5585 77.1804 56.6987 77.1804 55.4989V47.8607H81.0578V55.6189C81.0578 57.6984 80.4812 59.3047 79.3279 60.4378C78.1746 61.5709 76.5706 62.1374 74.5159 62.1374Z"/>
<path d="M82.5319 61.8574V47.8607H85.773L91.5394 57.3785H89.8294L95.4367 47.8607H98.6779L98.7176 61.8574H95.0987L95.059 53.3994H95.6754L91.4798 60.4778H89.73L85.4151 53.3994H86.1707V61.8574H82.5319Z"/>
<path d="M101.702 61.8574L107.131 49.3204L108.185 51H101.126L102.736 49.1804V53.1595H99.3758V47.8607H110.909V50.3401L105.997 61.8574H101.702Z"/>
<path d="M116.055 47.5808C117.368 47.5808 118.501 47.8407 119.456 48.3606C120.423 48.8805 121.172 49.6536 121.703 50.6801C122.246 51.6932 122.518 52.9595 122.518 54.4792C122.518 56.1055 122.2 57.4918 121.563 58.6382C120.94 59.7713 120.072 60.6377 118.959 61.2376C117.858 61.8375 116.572 62.1374 115.101 62.1374C114.332 62.1374 113.59 62.0441 112.874 61.8574C112.158 61.6842 111.542 61.4376 111.025 61.1176L112.456 58.2783C112.854 58.5582 113.265 58.7515 113.689 58.8582C114.127 58.9515 114.571 58.9981 115.021 58.9981C116.095 58.9981 116.95 58.6715 117.587 58.0184C118.223 57.3652 118.541 56.4121 118.541 55.159C118.541 54.9324 118.541 54.6991 118.541 54.4592C118.541 54.2059 118.521 53.9526 118.481 53.6994L119.456 54.5192C119.217 55.0124 118.905 55.4256 118.521 55.7589C118.137 56.0921 117.686 56.3454 117.169 56.5187C116.652 56.692 116.062 56.7786 115.399 56.7786C114.524 56.7786 113.722 56.5987 112.993 56.2388C112.277 55.8655 111.701 55.3523 111.263 54.6991C110.826 54.0326 110.607 53.2528 110.607 52.3597C110.607 51.3866 110.852 50.5468 111.343 49.8403C111.833 49.1204 112.49 48.5672 113.311 48.1807C114.133 47.7808 115.048 47.5808 116.055 47.5808ZM116.314 50.4001C115.943 50.4001 115.618 50.4735 115.34 50.6201C115.061 50.7667 114.836 50.9733 114.664 51.2399C114.504 51.4932 114.425 51.8065 114.425 52.1797C114.425 52.7129 114.597 53.1395 114.942 53.4594C115.3 53.7793 115.764 53.9393 116.334 53.9393C116.718 53.9393 117.056 53.866 117.348 53.7194C117.64 53.5727 117.865 53.3661 118.024 53.0995C118.183 52.8329 118.263 52.5196 118.263 52.1597C118.263 51.8131 118.183 51.5132 118.024 51.2599C117.865 50.9933 117.64 50.7867 117.348 50.6401C117.056 50.4801 116.712 50.4001 116.314 50.4001Z"/>
</mask>
<path d="M8.17409 43.0127L30.2976 8.55926H38.1778L46.5965 43.0127H38.6673L32.0107 12.4968H35.1432L16.6417 43.0127H8.17409ZM17.3269 35.6298L20.5574 29.5759H108.46L39.62 34.5962L17.3269 35.6298Z" fill="#101010"/>
<path d="M56.0859 43.4003C53.6263 43.4003 51.5155 42.8835 49.7535 41.8499C48.0282 40.7794 46.7984 39.2474 46.0642 37.254C45.33 35.2238 45.2566 32.7505 45.844 29.8343L49.0927 16.3297L56.0859 13.4443L52.7269 29.6681C52.2864 32.0676 52.5067 33.9502 53.3877 35.316C54.3054 36.645 55.9574 37.3094 58.3435 37.3094C60.803 37.3094 62.8587 36.608 64.5106 35.2053C66.1993 33.8026 67.3189 31.6615 67.8695 28.7822L70.8746 15.3823L77.7811 13.4443L71.9443 43.0127H65.3917L67.0436 34.5962L68.1449 37.254C66.7499 39.3582 64.9879 40.9086 62.8587 41.9053C60.7663 42.902 58.5087 43.4003 56.0859 43.4003Z" fill="#101010"/>
<path d="M84.2601 43.4003C82.3512 43.4003 80.6993 42.9942 79.3043 42.1821C77.9461 41.3331 76.9549 40.1518 76.3309 38.6383C75.7435 37.0879 75.6518 35.2607 76.0556 33.1566L81.0578 8.55926L87.9494 6.94325L82.9386 33.1012C82.7183 34.467 82.8651 35.5744 83.3791 36.4235C83.893 37.2725 84.8658 37.697 86.2975 37.697C86.9582 37.697 87.619 37.6047 88.2798 37.4202C88.9772 37.1987 89.6013 36.9034 90.1519 36.5342L91.3633 41.6284C90.3355 42.2929 89.1975 42.7543 87.9494 43.0127C86.7013 43.2711 85.4715 43.4003 84.2601 43.4003ZM74.0733 19.2029L77.7811 13.4443H94.6972L93.621 19.2029H74.0733Z" fill="#101010"/>
<path d="M102.445 43.4003C99.5816 43.4003 97.067 42.865 94.9012 41.7945C92.7721 40.6871 91.1201 39.1736 89.9454 37.254C88.7708 35.2976 88.1834 33.0089 88.1834 30.388C88.1834 27.0657 88.9359 24.1125 90.441 21.5285C91.9461 18.9076 94.0018 16.8588 96.6082 15.3823C99.2513 13.8688 102.261 13.112 105.639 13.112C108.539 13.112 111.053 13.6473 113.182 14.7178C115.348 15.7514 117.019 17.2465 118.193 19.2029C119.368 21.1225 119.955 23.4112 119.955 26.069C119.955 29.3544 119.203 32.3075 117.698 34.9284C116.193 37.5494 114.119 39.6166 111.475 41.1301C108.869 42.6436 105.859 43.4003 102.445 43.4003ZM102.885 37.4755C104.868 37.4755 106.611 37.0141 108.117 36.0912C109.622 35.1315 110.815 33.821 111.696 32.1599C112.577 30.4987 113.017 28.5792 113.017 26.4012C113.017 24.1125 112.338 22.3037 110.98 20.9748C109.622 19.6459 107.713 18.9814 105.253 18.9814C103.308 18.9814 101.564 19.4613 100.022 20.4211C98.5171 21.3439 97.324 22.636 96.443 24.2971C95.562 25.9582 95.1215 27.8778 95.1215 30.0557C95.1215 32.3814 95.8006 34.2086 97.1588 35.5375C98.5171 36.8295 100.426 37.4755 102.885 37.4755Z" fill="#101010"/>
<path d="M5.80371 61.8574V47.8607H12.1667C13.4392 47.8607 14.5329 48.0673 15.4476 48.4806C16.3755 48.8938 17.0913 49.4937 17.595 50.2802C18.0988 51.0533 18.3506 51.9731 18.3506 53.0395C18.3506 54.0926 18.0988 55.0057 17.595 55.7789C17.0913 56.552 16.3755 57.1519 15.4476 57.5785C14.5329 57.9917 13.4392 58.1983 12.1667 58.1983H7.99097L9.74078 56.4787V61.8574H5.80371ZM9.74078 56.8986L7.99097 55.079H11.928C12.7499 55.079 13.3597 54.8991 13.7574 54.5392C14.1683 54.1792 14.3738 53.6794 14.3738 53.0395C14.3738 52.3863 14.1683 51.8798 13.7574 51.5199C13.3597 51.16 12.7499 50.98 11.928 50.98H7.99097L9.74078 49.1604V56.8986Z" fill="#101010"/>
<path d="M19.0772 61.8574V47.8607H25.4401C26.7127 47.8607 27.8064 48.0673 28.721 48.4806C29.649 48.8938 30.3648 49.4937 30.8685 50.2802C31.3723 51.0533 31.6241 51.9731 31.6241 53.0395C31.6241 54.0926 31.3723 55.0057 30.8685 55.7789C30.3648 56.5387 29.649 57.1252 28.721 57.5385C27.8064 57.9384 26.7127 58.1383 25.4401 58.1383H21.2645L23.0143 56.4787V61.8574H19.0772ZM27.6871 61.8574L24.2272 56.7586H28.4228L31.9025 61.8574H27.6871ZM23.0143 56.8986L21.2645 55.079H25.2015C26.0234 55.079 26.6332 54.8991 27.0309 54.5392C27.4418 54.1792 27.6473 53.6794 27.6473 53.0395C27.6473 52.3863 27.4418 51.8798 27.0309 51.5199C26.6332 51.16 26.0234 50.98 25.2015 50.98H21.2645L23.0143 49.1604V56.8986Z" fill="#101010"/>
<path d="M36.222 53.2795H42.6844V56.2388H36.222V53.2795ZM36.5004 58.7982H43.778V61.8574H32.6031V47.8607H43.5195V50.92H36.5004V58.7982Z" fill="#101010"/>
<path d="M44.7698 61.8574V47.8607H48.0109L53.7773 57.3785H52.0673L57.6746 47.8607H60.9157L60.9555 61.8574H57.3366L57.2968 53.3994H57.9132L53.7177 60.4778H51.9678L47.653 53.3994H48.4086V61.8574H44.7698Z" fill="#101010"/>
<path d="M62.5483 61.8574V47.8607H66.4853V61.8574H62.5483Z" fill="#101010"/>
<path d="M74.5159 62.1374C72.4612 62.1374 70.8572 61.5709 69.7039 60.4378C68.5507 59.3047 67.974 57.6984 67.974 55.6189V47.8607H71.9111V55.4989C71.9111 56.6987 72.1431 57.5585 72.607 58.0783C73.0843 58.5982 73.7338 58.8582 74.5557 58.8582C75.3776 58.8582 76.0205 58.5982 76.4845 58.0783C76.9484 57.5585 77.1804 56.6987 77.1804 55.4989V47.8607H81.0578V55.6189C81.0578 57.6984 80.4812 59.3047 79.3279 60.4378C78.1746 61.5709 76.5706 62.1374 74.5159 62.1374Z" fill="#101010"/>
<path d="M82.5319 61.8574V47.8607H85.773L91.5394 57.3785H89.8294L95.4367 47.8607H98.6779L98.7176 61.8574H95.0987L95.059 53.3994H95.6754L91.4798 60.4778H89.73L85.4151 53.3994H86.1707V61.8574H82.5319Z" fill="#101010"/>
<path d="M101.702 61.8574L107.131 49.3204L108.185 51H101.126L102.736 49.1804V53.1595H99.3758V47.8607H110.909V50.3401L105.997 61.8574H101.702Z" fill="#101010"/>
<path d="M116.055 47.5808C117.368 47.5808 118.501 47.8407 119.456 48.3606C120.423 48.8805 121.172 49.6536 121.703 50.6801C122.246 51.6932 122.518 52.9595 122.518 54.4792C122.518 56.1055 122.2 57.4918 121.563 58.6382C120.94 59.7713 120.072 60.6377 118.959 61.2376C117.858 61.8375 116.572 62.1374 115.101 62.1374C114.332 62.1374 113.59 62.0441 112.874 61.8574C112.158 61.6842 111.542 61.4376 111.025 61.1176L112.456 58.2783C112.854 58.5582 113.265 58.7515 113.689 58.8582C114.127 58.9515 114.571 58.9981 115.021 58.9981C116.095 58.9981 116.95 58.6715 117.587 58.0184C118.223 57.3652 118.541 56.4121 118.541 55.159C118.541 54.9324 118.541 54.6991 118.541 54.4592C118.541 54.2059 118.521 53.9526 118.481 53.6994L119.456 54.5192C119.217 55.0124 118.905 55.4256 118.521 55.7589C118.137 56.0921 117.686 56.3454 117.169 56.5187C116.652 56.692 116.062 56.7786 115.399 56.7786C114.524 56.7786 113.722 56.5987 112.993 56.2388C112.277 55.8655 111.701 55.3523 111.263 54.6991C110.826 54.0326 110.607 53.2528 110.607 52.3597C110.607 51.3866 110.852 50.5468 111.343 49.8403C111.833 49.1204 112.49 48.5672 113.311 48.1807C114.133 47.7808 115.048 47.5808 116.055 47.5808ZM116.314 50.4001C115.943 50.4001 115.618 50.4735 115.34 50.6201C115.061 50.7667 114.836 50.9733 114.664 51.2399C114.504 51.4932 114.425 51.8065 114.425 52.1797C114.425 52.7129 114.597 53.1395 114.942 53.4594C115.3 53.7793 115.764 53.9393 116.334 53.9393C116.718 53.9393 117.056 53.866 117.348 53.7194C117.64 53.5727 117.865 53.3661 118.024 53.0995C118.183 52.8329 118.263 52.5196 118.263 52.1597C118.263 51.8131 118.183 51.5132 118.024 51.2599C117.865 50.9933 117.64 50.7867 117.348 50.6401C117.056 50.4801 116.712 50.4001 116.314 50.4001Z" fill="#101010"/>
<path d="M8.17409 43.0127L7.33263 42.4724L6.34355 44.0127H8.17409V43.0127ZM30.2976 8.55926V7.55926H29.7513L29.4561 8.01893L30.2976 8.55926ZM38.1778 8.55926L39.1492 8.32189L38.9629 7.55926H38.1778V8.55926ZM46.5965 43.0127V44.0127H47.8703L47.5679 42.7753L46.5965 43.0127ZM38.6673 43.0127L37.6903 43.2258L37.8619 44.0127H38.6673V43.0127ZM32.0107 12.4968V11.4968H30.769L31.0336 12.7099L32.0107 12.4968ZM35.1432 12.4968L35.9983 13.0152L36.9189 11.4968H35.1432V12.4968ZM16.6417 43.0127V44.0127H17.2048L17.4968 43.5311L16.6417 43.0127ZM17.3269 35.6298L16.4447 35.159L15.617 36.7102L17.3733 36.6287L17.3269 35.6298ZM20.5574 29.5759V28.5759H19.9575L19.6751 29.1051L20.5574 29.5759ZM108.46 29.5759L108.532 30.5732L108.46 28.5759V29.5759ZM39.62 34.5962L39.6663 35.5951L39.6796 35.5945L39.6928 35.5936L39.62 34.5962ZM49.7535 41.8499L49.2263 42.6996L49.2368 42.7062L49.2475 42.7124L49.7535 41.8499ZM46.0642 37.254L45.1238 37.5941L45.1258 37.5997L46.0642 37.254ZM45.844 29.8343L44.8717 29.6004L44.8673 29.6185L44.8636 29.6368L45.844 29.8343ZM49.0927 16.3297L48.7113 15.4053L48.2398 15.5999L48.1205 16.0958L49.0927 16.3297ZM56.0859 13.4443L57.0651 13.647L57.4473 11.8007L55.7044 12.5199L56.0859 13.4443ZM52.7269 29.6681L51.7477 29.4654L51.7454 29.4765L51.7434 29.4876L52.7269 29.6681ZM53.3877 35.316L52.5474 35.8581L52.5559 35.8713L52.5649 35.8843L53.3877 35.316ZM64.5106 35.2053L63.8716 34.436L63.8634 34.443L64.5106 35.2053ZM67.8695 28.7822L66.8938 28.5634L66.8903 28.5788L66.8873 28.5944L67.8695 28.7822ZM70.8746 15.3823L70.6045 14.4195L70.0295 14.5808L69.8989 15.1634L70.8746 15.3823ZM77.7811 13.4443V12.4443H77.6434L77.5109 12.4815L77.7811 13.4443ZM71.9443 43.0127V44.0127H72.7662L72.9253 43.2064L71.9443 43.0127ZM65.3917 43.0127L64.4104 42.8201L64.1763 44.0127H65.3917V43.0127ZM67.0436 34.5962L67.9674 34.2134L66.7 31.1546L66.0623 34.4036L67.0436 34.5962ZM68.1449 37.254L68.9783 37.8066L69.2724 37.363L69.0687 36.8713L68.1449 37.254ZM62.8587 41.9053L62.4347 40.9996L62.4287 41.0025L62.8587 41.9053ZM79.3043 42.1821L78.7743 43.0301L78.7876 43.0384L78.8012 43.0463L79.3043 42.1821ZM76.3309 38.6383L75.3957 38.9926L75.4009 39.0061L75.4064 39.0195L76.3309 38.6383ZM76.0556 33.1566L75.0756 32.9573L75.0735 32.9681L76.0556 33.1566ZM81.0578 8.55926L80.8295 7.58567L80.2056 7.73197L80.0779 8.35997L81.0578 8.55926ZM87.9494 6.94325L88.9315 7.13139L89.2215 5.61783L87.7211 5.96965L87.9494 6.94325ZM82.9386 33.1012L81.9564 32.913L81.9537 32.9275L81.9513 32.942L82.9386 33.1012ZM88.2798 37.4202L88.5488 38.3833L88.5657 38.3786L88.5824 38.3733L88.2798 37.4202ZM90.1519 36.5342L91.1248 36.3029L90.7916 34.9015L89.5951 35.7036L90.1519 36.5342ZM91.3633 41.6284L91.9062 42.4682L92.4997 42.0846L92.3362 41.3971L91.3633 41.6284ZM87.9494 43.0127L87.7467 42.0335L87.9494 43.0127ZM74.0733 19.2029L73.2325 18.6616L72.24 20.2029H74.0733V19.2029ZM94.6972 13.4443L95.6802 13.628L95.9014 12.4443H94.6972V13.4443ZM93.621 19.2029V20.2029H94.4514L94.604 19.3866L93.621 19.2029ZM94.9012 41.7945L94.4398 42.6817L94.4489 42.6864L94.4581 42.691L94.9012 41.7945ZM89.9454 37.254L89.0881 37.7688L89.0925 37.776L89.9454 37.254ZM90.441 21.5285L91.3051 22.0318L91.3082 22.0265L90.441 21.5285ZM96.6082 15.3823L97.1011 16.2524L97.1051 16.2501L96.6082 15.3823ZM113.182 14.7178L112.733 15.6112L112.742 15.6159L112.752 15.6203L113.182 14.7178ZM118.193 19.2029L117.336 19.7177L117.34 19.7249L118.193 19.2029ZM117.698 34.9284L118.565 35.4264L117.698 34.9284ZM111.475 41.1301L110.979 40.2622L110.973 40.2653L111.475 41.1301ZM108.117 36.0912L108.639 36.9437L108.647 36.9391L108.654 36.9344L108.117 36.0912ZM111.696 32.1599L112.579 32.6284V32.6284L111.696 32.1599ZM110.98 20.9748L111.679 20.26L110.98 20.9748ZM100.022 20.4211L100.545 21.2736L100.551 21.27L100.022 20.4211ZM96.443 24.2971L95.5596 23.8286L96.443 24.2971ZM97.1588 35.5375L96.4594 36.2524L96.4696 36.2621L97.1588 35.5375ZM5.80371 61.8574H4.80371V62.8574H5.80371V61.8574ZM5.80371 47.8607V46.8607H4.80371V47.8607H5.80371ZM15.4476 48.4806L15.0358 49.3919L15.0407 49.3941L15.4476 48.4806ZM17.595 50.2802L16.7529 50.8195L16.7572 50.8261L17.595 50.2802ZM17.595 55.7789L18.4329 56.3248L17.595 55.7789ZM15.4476 57.5785L15.8593 58.4898L15.8652 58.487L15.4476 57.5785ZM7.99097 58.1983L7.29005 57.4851L5.54672 59.1983H7.99097V58.1983ZM9.74078 56.4787H10.7408V54.0939L9.03986 55.7655L9.74078 56.4787ZM9.74078 61.8574V62.8574H10.7408V61.8574H9.74078ZM9.74078 56.8986L9.01999 57.5918L10.7408 59.3812V56.8986H9.74078ZM7.99097 55.079V54.079H5.64195L7.27018 55.7722L7.99097 55.079ZM13.7574 54.5392L13.0985 53.7869L13.0924 53.7923L13.0864 53.7977L13.7574 54.5392ZM13.7574 51.5199L13.0864 52.2613L13.0924 52.2668L13.0985 52.2721L13.7574 51.5199ZM7.99097 50.98L7.27018 50.2868L5.64194 51.98H7.99097V50.98ZM9.74078 49.1604H10.7408V46.6779L9.01999 48.4673L9.74078 49.1604ZM19.0772 61.8574H18.0772V62.8574H19.0772V61.8574ZM19.0772 47.8607V46.8607H18.0772V47.8607H19.0772ZM28.721 48.4806L28.3093 49.3919L28.3142 49.3941L28.721 48.4806ZM30.8685 50.2802L30.0264 50.8195L30.0307 50.8261L30.8685 50.2802ZM30.8685 55.7789L31.702 56.3315L31.7064 56.3248L30.8685 55.7789ZM28.721 57.5385L29.1216 58.4547L29.1279 58.452L28.721 57.5385ZM21.2645 58.1383L20.5763 57.4128L18.757 59.1383H21.2645V58.1383ZM23.0143 56.4787H24.0143V54.152L22.3261 55.7531L23.0143 56.4787ZM23.0143 61.8574V62.8574H24.0143V61.8574H23.0143ZM27.6871 61.8574L26.8596 62.4189L27.1571 62.8574H27.6871V61.8574ZM24.2272 56.7586V55.7586H22.3402L23.3997 57.3201L24.2272 56.7586ZM28.4228 56.7586L29.2488 56.1949L28.951 55.7586H28.4228V56.7586ZM31.9025 61.8574V62.8574H33.7957L32.7285 61.2937L31.9025 61.8574ZM23.0143 56.8986L22.2935 57.5918L24.0143 59.3812V56.8986H23.0143ZM21.2645 55.079V54.079H18.9154L20.5437 55.7722L21.2645 55.079ZM27.0309 54.5392L26.372 53.7869L26.3659 53.7923L26.3599 53.7977L27.0309 54.5392ZM27.0309 51.5199L26.3599 52.2613L26.3659 52.2668L26.372 52.2721L27.0309 51.5199ZM21.2645 50.98L20.5437 50.2868L18.9154 51.98H21.2645V50.98ZM23.0143 49.1604H24.0143V46.6779L22.2935 48.4673L23.0143 49.1604ZM36.222 53.2795V52.2795H35.222V53.2795H36.222ZM42.6844 53.2795H43.6844V52.2795H42.6844V53.2795ZM42.6844 56.2388V57.2388H43.6844V56.2388H42.6844ZM36.222 56.2388H35.222V57.2388H36.222V56.2388ZM36.5004 58.7982H35.5004V59.7982H36.5004V58.7982ZM43.778 58.7982H44.778V57.7982H43.778V58.7982ZM43.778 61.8574V62.8574H44.778V61.8574H43.778ZM32.6031 61.8574H31.6031V62.8574H32.6031V61.8574ZM32.6031 47.8607V46.8607H31.6031V47.8607H32.6031ZM43.5195 47.8607H44.5195V46.8607H43.5195V47.8607ZM43.5195 50.92V51.92H44.5195V50.92H43.5195ZM36.5004 50.92V49.92H35.5004V50.92H36.5004ZM44.7698 61.8574H43.7698V62.8574H44.7698V61.8574ZM44.7698 47.8607V46.8607H43.7698V47.8607H44.7698ZM48.0109 47.8607L48.8662 47.3426L48.5742 46.8607H48.0109V47.8607ZM53.7773 57.3785V58.3785H55.5524L54.6326 56.8603L53.7773 57.3785ZM52.0673 57.3785L51.2057 56.8709L50.3175 58.3785H52.0673V57.3785ZM57.6746 47.8607V46.8607H57.1031L56.813 47.3531L57.6746 47.8607ZM60.9157 47.8607L61.9157 47.8579L61.9129 46.8607H60.9157V47.8607ZM60.9555 61.8574V62.8574H61.9584L61.9555 61.8546L60.9555 61.8574ZM57.3366 61.8574L56.3366 61.8621L56.3413 62.8574H57.3366V61.8574ZM57.2968 53.3994V52.3994H56.2921L56.2968 53.4041L57.2968 53.3994ZM57.9132 53.3994L58.7735 53.9093L59.6684 52.3994H57.9132V53.3994ZM53.7177 60.4778V61.4778H54.2874L54.5779 60.9877L53.7177 60.4778ZM51.9678 60.4778L51.114 60.9983L51.4063 61.4778H51.9678V60.4778ZM47.653 53.3994V52.3994H45.8722L46.7991 53.9199L47.653 53.3994ZM48.4086 53.3994H49.4086V52.3994H48.4086V53.3994ZM48.4086 61.8574V62.8574H49.4086V61.8574H48.4086ZM62.5483 61.8574H61.5483V62.8574H62.5483V61.8574ZM62.5483 47.8607V46.8607H61.5483V47.8607H62.5483ZM66.4853 47.8607H67.4853V46.8607H66.4853V47.8607ZM66.4853 61.8574V62.8574H67.4853V61.8574H66.4853ZM69.7039 60.4378L70.4048 59.7245L69.7039 60.4378ZM67.974 47.8607V46.8607H66.974V47.8607H67.974ZM71.9111 47.8607H72.9111V46.8607H71.9111V47.8607ZM72.607 58.0783L71.8609 58.7442L71.8703 58.7546L72.607 58.0783ZM77.1804 47.8607V46.8607H76.1804V47.8607H77.1804ZM81.0578 47.8607H82.0578V46.8607H81.0578V47.8607ZM82.5319 61.8574H81.5319V62.8574H82.5319V61.8574ZM82.5319 47.8607V46.8607H81.5319V47.8607H82.5319ZM85.773 47.8607L86.6283 47.3426L86.3364 46.8607H85.773V47.8607ZM91.5394 57.3785V58.3785H93.3145L92.3947 56.8603L91.5394 57.3785ZM89.8294 57.3785L88.9678 56.8709L88.0796 58.3785H89.8294V57.3785ZM95.4367 47.8607V46.8607H94.8652L94.5752 47.3531L95.4367 47.8607ZM98.6779 47.8607L99.6779 47.8579L99.675 46.8607H98.6779V47.8607ZM98.7176 61.8574V62.8574H99.7205L99.7176 61.8546L98.7176 61.8574ZM95.0987 61.8574L94.0987 61.8621L94.1034 62.8574H95.0987V61.8574ZM95.059 53.3994V52.3994H94.0542L94.059 53.4041L95.059 53.3994ZM95.6754 53.3994L96.5356 53.9093L97.4305 52.3994H95.6754V53.3994ZM91.4798 60.4778V61.4778H92.0495L92.34 60.9877L91.4798 60.4778ZM89.73 60.4778L88.8761 60.9983L89.1684 61.4778H89.73V60.4778ZM85.4151 53.3994V52.3994H83.6344L84.5612 53.9199L85.4151 53.3994ZM86.1707 53.3994H87.1707V52.3994H86.1707V53.3994ZM86.1707 61.8574V62.8574H87.1707V61.8574H86.1707ZM101.702 61.8574L100.785 61.4601L100.18 62.8574H101.702V61.8574ZM107.131 49.3204L107.978 48.7889L106.968 47.1795L106.213 48.923L107.131 49.3204ZM108.185 51V52H109.993L109.032 50.4685L108.185 51ZM101.126 51L100.377 50.3372L98.905 52H101.126V51ZM102.736 49.1804H103.736V46.5419L101.987 48.5176L102.736 49.1804ZM102.736 53.1595V54.1595H103.736V53.1595H102.736ZM99.3758 53.1595H98.3758V54.1595H99.3758V53.1595ZM99.3758 47.8607V46.8607H98.3758V47.8607H99.3758ZM110.909 47.8607H111.909V46.8607H110.909V47.8607ZM110.909 50.3401L111.829 50.7324L111.909 50.5445V50.3401H110.909ZM105.997 61.8574V62.8574H106.658L106.917 62.2497L105.997 61.8574ZM119.456 48.3606L118.977 49.2388L118.982 49.2415L119.456 48.3606ZM121.703 50.6801L120.814 51.139L120.818 51.146L120.821 51.1528L121.703 50.6801ZM121.563 58.6382L120.689 58.1529L120.687 58.1564L121.563 58.6382ZM118.959 61.2376L118.484 60.3572L118.48 60.3596L118.959 61.2376ZM112.874 61.8574L113.126 60.8898L113.118 60.8876L113.109 60.8855L112.874 61.8574ZM111.025 61.1176L110.132 60.6674L109.719 61.4857L110.499 61.968L111.025 61.1176ZM112.456 58.2783L113.032 57.4606L112.085 56.7939L111.563 57.8281L112.456 58.2783ZM113.689 58.8582L113.445 59.828L113.463 59.8324L113.481 59.8361L113.689 58.8582ZM117.587 58.0184L118.303 58.7161L117.587 58.0184ZM118.481 53.6994L119.125 52.9342L117.079 51.2122L117.493 53.8545L118.481 53.6994ZM119.456 54.5192L120.356 54.9547L120.694 54.2546L120.099 53.754L119.456 54.5192ZM118.521 55.7589L119.176 56.5145L118.521 55.7589ZM117.169 56.5187L116.851 55.5705L117.169 56.5187ZM112.993 56.2388L112.531 57.1255L112.541 57.1306L112.551 57.1355L112.993 56.2388ZM111.263 54.6991L110.427 55.2479L110.432 55.2556L111.263 54.6991ZM111.343 49.8403L112.164 50.4106L112.169 50.4034L111.343 49.8403ZM113.311 48.1807L113.737 49.0856L113.749 49.0799L113.311 48.1807ZM115.34 50.6201L114.874 49.7353L115.34 50.6201ZM114.664 51.2399L113.824 50.697L113.817 50.7081L114.664 51.2399ZM114.942 53.4594L114.262 54.1923L114.268 54.1987L114.275 54.205L114.942 53.4594ZM117.348 53.7194L117.797 54.6128H117.797L117.348 53.7194ZM118.024 53.0995L118.883 53.6119L118.024 53.0995ZM118.024 51.2599L117.165 51.7723L117.171 51.7821L117.177 51.7918L118.024 51.2599ZM117.348 50.6401L116.867 51.5168L116.883 51.5255L116.899 51.5335L117.348 50.6401ZM9.01554 43.553L31.139 9.09958L29.4561 8.01893L7.33263 42.4724L9.01554 43.553ZM30.2976 9.55926H38.1778V7.55926H30.2976V9.55926ZM37.2064 8.79662L45.6251 43.2501L47.5679 42.7753L39.1492 8.32189L37.2064 8.79662ZM46.5965 42.0127H38.6673V44.0127H46.5965V42.0127ZM39.6443 42.7996L32.9877 12.2837L31.0336 12.7099L37.6903 43.2258L39.6443 42.7996ZM32.0107 13.4968H35.1432V11.4968H32.0107V13.4968ZM34.2881 11.9784L15.7866 42.4942L17.4968 43.5311L35.9983 13.0152L34.2881 11.9784ZM16.6417 42.0127H8.17409V44.0127H16.6417V42.0127ZM18.2092 36.1006L21.4396 30.0466L19.6751 29.1051L16.4447 35.159L18.2092 36.1006ZM20.5574 30.5759H108.46V28.5759H20.5574V30.5759ZM108.387 28.5785L39.5473 33.5989L39.6928 35.5936L108.532 30.5732L108.387 28.5785ZM39.5737 33.5973L17.2806 34.6309L17.3733 36.6287L39.6663 35.5951L39.5737 33.5973ZM56.0859 42.4003C53.7679 42.4003 51.8395 41.9142 50.2595 40.9873L49.2475 42.7124C51.1916 43.8528 53.4848 44.4003 56.0859 44.4003V42.4003ZM50.2807 41.0002C48.754 40.0529 47.6636 38.703 47.0026 36.9084L45.1258 37.5997C45.9332 39.7918 47.3023 41.5059 49.2263 42.6996L50.2807 41.0002ZM47.0046 36.914C46.3519 35.1091 46.2599 32.8336 46.8243 30.0317L44.8636 29.6368C44.2533 32.6674 44.3081 35.3384 45.1238 37.5941L47.0046 36.914ZM46.8162 30.0682L50.065 16.5636L48.1205 16.0958L44.8717 29.6004L46.8162 30.0682ZM49.4741 17.2541L56.4673 14.3687L55.7044 12.5199L48.7113 15.4053L49.4741 17.2541ZM55.1066 13.2415L51.7477 29.4654L53.7062 29.8709L57.0651 13.647L55.1066 13.2415ZM51.7434 29.4876C51.2795 32.0146 51.473 34.1926 52.5474 35.8581L54.2281 34.774C53.5403 33.7078 53.2934 32.1206 53.7105 29.8487L51.7434 29.4876ZM52.5649 35.8843C53.7471 37.5962 55.7949 38.3094 58.3435 38.3094V36.3094C56.1199 36.3094 54.8638 35.6937 54.2106 34.7478L52.5649 35.8843ZM58.3435 38.3094C61.0061 38.3094 63.3009 37.5444 65.1579 35.9676L63.8634 34.443C62.4165 35.6716 60.5999 36.3094 58.3435 36.3094V38.3094ZM65.1496 35.9745C67.0686 34.3804 68.2722 32.0004 68.8517 28.97L66.8873 28.5944C66.3656 31.3227 65.3299 33.2247 63.8716 34.4361L65.1496 35.9745ZM68.8453 29.001L71.8504 15.6011L69.8989 15.1634L66.8938 28.5634L68.8453 29.001ZM71.1448 16.3451L78.0512 14.4071L77.5109 12.4815L70.6045 14.4195L71.1448 16.3451ZM76.8 13.2506L70.9632 42.819L72.9253 43.2064L78.7621 13.6379L76.8 13.2506ZM71.9443 42.0127H65.3917V44.0127H71.9443V42.0127ZM66.3729 43.2053L68.0249 34.7888L66.0623 34.4036L64.4104 42.8201L66.3729 43.2053ZM66.1197 34.979L67.221 37.6368L69.0687 36.8713L67.9674 34.2134L66.1197 34.979ZM67.3114 36.7015C66.0101 38.6643 64.3852 40.0865 62.4348 40.9996L63.2827 42.8109C65.5905 41.7306 67.4897 40.0521 68.9783 37.8066L67.3114 36.7015ZM62.4287 41.0025C60.4767 41.9322 58.3668 42.4003 56.0859 42.4003V44.4003C58.6505 44.4003 61.0559 43.8717 63.2888 42.8081L62.4287 41.0025ZM84.2601 42.4003C82.4955 42.4003 81.0238 42.0261 79.8075 41.3179L78.8012 43.0463C80.3747 43.9624 82.2069 44.4003 84.2601 44.4003V42.4003ZM79.8344 41.3342C78.6572 40.5983 77.8018 39.5823 77.2554 38.2571L75.4064 39.0195C76.1081 40.7214 77.2349 42.0678 78.7743 43.0301L79.8344 41.3342ZM77.266 38.2841C76.7608 36.9505 76.6587 35.3196 77.0376 33.345L75.0735 32.9681C74.6448 35.2018 74.7262 37.2254 75.3957 38.9926L77.266 38.2841ZM77.0355 33.3558L82.0378 8.75854L80.0779 8.35997L75.0756 32.9573L77.0355 33.3558ZM81.2861 9.53285L88.1777 7.91684L87.7211 5.96965L80.8295 7.58567L81.2861 9.53285ZM86.9672 6.75511L81.9564 32.913L83.9207 33.2893L88.9315 7.13139L86.9672 6.75511ZM81.9513 32.942C81.7081 34.4504 81.8461 35.8221 82.5236 36.9413L84.2346 35.9056C83.8842 35.3268 83.7285 34.4836 83.9258 33.2604L81.9513 32.942ZM82.5236 36.9413C83.2919 38.2106 84.6855 38.697 86.2975 38.697V36.697C85.0461 36.697 84.4941 36.3344 84.2346 35.9056L82.5236 36.9413ZM86.2975 38.697C87.0526 38.697 87.8038 38.5914 88.5488 38.3833L88.0107 36.457C87.4342 36.6181 86.8639 36.697 86.2975 36.697V38.697ZM88.5824 38.3733C89.3607 38.1261 90.0719 37.7918 90.7088 37.3648L89.5951 35.7036C89.1306 36.015 88.5937 36.2713 87.9771 36.4671L88.5824 38.3733ZM89.1791 36.7656L90.3905 41.8598L92.3362 41.3971L91.1248 36.3029L89.1791 36.7656ZM90.8205 40.7886C89.9007 41.3832 88.8788 41.7991 87.7467 42.0335L88.1521 43.9919C89.5162 43.7095 90.7703 43.2025 91.9062 42.4682L90.8205 40.7886ZM87.7467 42.0335C86.5618 42.2788 85.4 42.4003 84.2601 42.4003V44.4003C85.5431 44.4003 86.8408 44.2634 88.1521 43.9919L87.7467 42.0335ZM74.914 19.7443L78.6218 13.9856L76.9403 12.9029L73.2325 18.6616L74.914 19.7443ZM77.7811 14.4443H94.6972V12.4443H77.7811V14.4443ZM93.7142 13.2606L92.638 19.0192L94.604 19.3866L95.6802 13.628L93.7142 13.2606ZM93.621 18.2029H74.0733V20.2029H93.621V18.2029ZM102.445 42.4003C99.7071 42.4003 97.3491 41.889 95.3443 40.898L94.4581 42.691C96.785 43.8411 99.4562 44.4003 102.445 44.4003V42.4003ZM95.3626 40.9073C93.3836 39.878 91.8719 38.4862 90.7984 36.7321L89.0925 37.776C90.3684 39.861 92.1605 41.4962 94.4398 42.6817L95.3626 40.9073ZM90.8028 36.7393C89.7346 34.9602 89.1834 32.855 89.1834 30.388H87.1834C87.1834 33.1628 87.8069 35.6349 89.0881 37.7688L90.8028 36.7393ZM89.1834 30.388C89.1834 27.2224 89.8987 24.4465 91.3051 22.0318L89.5769 21.0252C87.9732 23.7785 87.1834 26.909 87.1834 30.388H89.1834ZM91.3082 22.0265C92.7249 19.5594 94.652 17.6398 97.1011 16.2523L96.1153 14.5122C93.3516 16.0779 91.1673 18.2558 89.5738 21.0305L91.3082 22.0265ZM97.1051 16.2501C99.5809 14.8324 102.416 14.112 105.639 14.112V12.112C102.107 12.112 98.9216 12.9052 96.1113 14.5145L97.1051 16.2501ZM105.639 14.112C108.416 14.112 110.77 14.6244 112.733 15.6112L113.632 13.8244C111.336 12.6702 108.661 12.112 105.639 12.112V14.112ZM112.752 15.6203C114.75 16.5739 116.268 17.9385 117.336 19.7177L119.051 18.6882C117.769 16.5544 115.947 14.9289 113.613 13.8153L112.752 15.6203ZM117.34 19.7249C118.403 21.4608 118.955 23.5616 118.955 26.069H120.955C120.955 23.2607 120.333 20.7841 119.046 18.6809L117.34 19.7249ZM118.955 26.069C118.955 29.1953 118.241 31.9741 116.83 34.4305L118.565 35.4264C120.164 32.6409 120.955 29.5135 120.955 26.069H118.955ZM116.83 34.4305C115.415 36.8962 113.469 38.8363 110.979 40.2623L111.972 41.9979C114.768 40.3969 116.971 38.2025 118.565 35.4264L116.83 34.4305ZM110.973 40.2653C108.539 41.6789 105.706 42.4003 102.445 42.4003V44.4003C106.011 44.4003 109.199 43.6082 111.978 41.9948L110.973 40.2653ZM102.885 38.4755C105.029 38.4755 106.958 37.9745 108.639 36.9437L107.594 35.2387C106.265 36.0537 104.707 36.4755 102.885 36.4755V38.4755ZM108.654 36.9344C110.313 35.8767 111.622 34.4337 112.579 32.6284L110.812 31.6913C110.008 33.2083 108.93 34.3862 107.579 35.2481L108.654 36.9344ZM112.579 32.6284C113.548 30.8016 114.017 28.7166 114.017 26.4012H112.017C112.017 28.4418 111.605 30.1958 110.812 31.6913L112.579 32.6284ZM114.017 26.4012C114.017 23.9025 113.268 21.8147 111.679 20.26L110.281 21.6896C111.408 22.7928 112.017 24.3225 112.017 26.4012H114.017ZM111.679 20.26C110.084 18.699 107.894 17.9814 105.253 17.9814V19.9814C107.531 19.9814 109.159 20.5927 110.281 21.6896L111.679 20.26ZM105.253 17.9814C103.135 17.9814 101.205 18.5066 99.4937 19.5721L100.551 21.27C101.922 20.4161 103.481 19.9814 105.253 19.9814V17.9814ZM99.4994 19.5686C97.832 20.591 96.5187 22.0201 95.5596 23.8286L97.3264 24.7656C98.1294 23.2518 99.2022 22.0969 100.545 21.2736L99.4994 19.5686ZM95.5596 23.8286C94.5907 25.6553 94.1215 27.7404 94.1215 30.0557H96.1215C96.1215 28.0152 96.5333 26.2611 97.3264 24.7656L95.5596 23.8286ZM94.1215 30.0557C94.1215 32.5861 94.8674 34.6946 96.4595 36.2523L97.8582 34.8227C96.7337 33.7226 96.1215 32.1766 96.1215 30.0557H94.1215ZM96.4696 36.2621C98.066 37.7806 100.252 38.4755 102.885 38.4755V36.4755C100.6 36.4755 98.9681 35.8784 97.8481 34.813L96.4696 36.2621ZM6.80371 61.8574V47.8607H4.80371V61.8574H6.80371ZM5.80371 48.8607H12.1667V46.8607H5.80371V48.8607ZM12.1667 48.8607C13.334 48.8607 14.2803 49.0506 15.0358 49.3919L15.8593 47.5693C14.7855 47.0841 13.5445 46.8607 12.1667 46.8607V48.8607ZM15.0407 49.3941C15.8064 49.7351 16.3639 50.212 16.753 50.8195L18.4371 49.7408C17.8187 48.7753 16.9445 48.0526 15.8544 47.5671L15.0407 49.3941ZM16.7572 50.8261C17.1394 51.4127 17.3506 52.136 17.3506 53.0395H19.3506C19.3506 51.8102 19.0581 50.6939 18.4329 49.7343L16.7572 50.8261ZM17.3506 53.0395C17.3506 53.9269 17.1407 54.6443 16.7572 55.233L18.4329 56.3248C19.0568 55.3671 19.3506 54.2583 19.3506 53.0395H17.3506ZM16.7572 55.233C16.3673 55.8314 15.8052 56.3134 15.0299 56.6699L15.8652 58.487C16.9457 57.9903 17.8153 57.2726 18.4329 56.3248L16.7572 55.233ZM15.0358 56.6671C14.2803 57.0085 13.334 57.1983 12.1667 57.1983V59.1983C13.5445 59.1983 14.7855 58.9749 15.8593 58.4898L15.0358 56.6671ZM12.1667 57.1983H7.99097V59.1983H12.1667V57.1983ZM8.6919 58.9115L10.4417 57.1919L9.03986 55.7655L7.29005 57.4851L8.6919 58.9115ZM8.74078 56.4787V61.8574H10.7408V56.4787H8.74078ZM9.74078 60.8574H5.80371V62.8574H9.74078V60.8574ZM10.4616 56.2055L8.71176 54.3859L7.27018 55.7722L9.01999 57.5918L10.4616 56.2055ZM7.99097 56.079H11.928V54.079H7.99097V56.079ZM11.928 56.079C12.8705 56.079 13.7703 55.8762 14.4284 55.2806L13.0864 53.7977C12.9491 53.9219 12.6294 54.079 11.928 54.079V56.079ZM14.4163 55.2914C15.0818 54.7085 15.3738 53.9132 15.3738 53.0395H13.3738C13.3738 53.4456 13.2548 53.65 13.0985 53.7869L14.4163 55.2914ZM15.3738 53.0395C15.3738 52.1599 15.0865 51.3546 14.4163 50.7676L13.0985 52.2721C13.2502 52.405 13.3738 52.6128 13.3738 53.0395H15.3738ZM14.4284 50.7784C13.7703 50.1828 12.8705 49.98 11.928 49.98V51.98C12.6294 51.98 12.9491 52.1371 13.0864 52.2613L14.4284 50.7784ZM11.928 49.98H7.99097V51.98H11.928V49.98ZM8.71176 51.6732L10.4616 49.8536L9.01999 48.4673L7.27018 50.2868L8.71176 51.6732ZM8.74078 49.1604V56.8986H10.7408V49.1604H8.74078ZM20.0772 61.8574V47.8607H18.0772V61.8574H20.0772ZM19.0772 48.8607H25.4401V46.8607H19.0772V48.8607ZM25.4401 48.8607C26.6075 48.8607 27.5538 49.0506 28.3093 49.3919L29.1328 47.5693C28.0589 47.0841 26.818 46.8607 25.4401 46.8607V48.8607ZM28.3142 49.3941C29.0799 49.7351 29.6374 50.212 30.0264 50.8195L31.7106 49.7408C31.0922 48.7753 30.218 48.0526 29.1279 47.5671L28.3142 49.3941ZM30.0307 50.8261C30.4129 51.4127 30.6241 52.136 30.6241 53.0395H32.6241C32.6241 51.8102 32.3316 50.6939 31.7064 49.7343L30.0307 50.8261ZM30.6241 53.0395C30.6241 53.9269 30.4142 54.6443 30.0307 55.233L31.7064 56.3248C32.3303 55.3671 32.6241 54.2583 32.6241 53.0395H30.6241ZM30.0351 55.2263C29.6481 55.81 29.089 56.2799 28.3142 56.625L29.1279 58.452C30.2089 57.9705 31.0815 57.2674 31.702 56.3314L30.0351 55.2263ZM28.3204 56.6222C27.5617 56.9539 26.6113 57.1383 25.4401 57.1383V59.1383C26.8141 59.1383 28.051 58.9228 29.1216 58.4547L28.3204 56.6222ZM25.4401 57.1383H21.2645V59.1383H25.4401V57.1383ZM21.9526 58.8639L23.7024 57.2043L22.3261 55.7531L20.5763 57.4128L21.9526 58.8639ZM22.0143 56.4787V61.8574H24.0143V56.4787H22.0143ZM23.0143 60.8574H19.0772V62.8574H23.0143V60.8574ZM28.5145 61.2959L25.0547 56.1971L23.3997 57.3201L26.8596 62.4189L28.5145 61.2959ZM24.2272 57.7586H28.4228V55.7586H24.2272V57.7586ZM27.5968 57.3223L31.0765 62.4211L32.7285 61.2937L29.2488 56.1949L27.5968 57.3223ZM31.9025 60.8574H27.6871V62.8574H31.9025V60.8574ZM23.7351 56.2055L21.9853 54.3859L20.5437 55.7722L22.2935 57.5918L23.7351 56.2055ZM21.2645 56.079H25.2015V54.079H21.2645V56.079ZM25.2015 56.079C26.1439 56.079 27.0438 55.8762 27.7019 55.2806L26.3599 53.7977C26.2226 53.9219 25.9029 54.079 25.2015 54.079V56.079ZM27.6897 55.2914C28.3553 54.7085 28.6473 53.9132 28.6473 53.0395H26.6473C26.6473 53.4456 26.5283 53.65 26.372 53.7869L27.6897 55.2914ZM28.6473 53.0395C28.6473 52.1599 28.36 51.3546 27.6897 50.7676L26.372 52.2721C26.5237 52.405 26.6473 52.6128 26.6473 53.0395H28.6473ZM27.7019 50.7784C27.0438 50.1828 26.1439 49.98 25.2015 49.98V51.98C25.9029 51.98 26.2226 52.1371 26.3599 52.2613L27.7019 50.7784ZM25.2015 49.98H21.2645V51.98H25.2015V49.98ZM21.9852 51.6732L23.7351 49.8536L22.2935 48.4673L20.5437 50.2868L21.9852 51.6732ZM22.0143 49.1604V56.8986H24.0143V49.1604H22.0143ZM36.222 54.2795H42.6844V52.2795H36.222V54.2795ZM41.6844 53.2795V56.2388H43.6844V53.2795H41.6844ZM42.6844 55.2388H36.222V57.2388H42.6844V55.2388ZM37.222 56.2388V53.2795H35.222V56.2388H37.222ZM36.5004 59.7982H43.778V57.7982H36.5004V59.7982ZM42.778 58.7982V61.8574H44.778V58.7982H42.778ZM43.778 60.8574H32.6031V62.8574H43.778V60.8574ZM33.6031 61.8574V47.8607H31.6031V61.8574H33.6031ZM32.6031 48.8607H43.5195V46.8607H32.6031V48.8607ZM42.5195 47.8607V50.92H44.5195V47.8607H42.5195ZM43.5195 49.92H36.5004V51.92H43.5195V49.92ZM35.5004 50.92V58.7982H37.5004V50.92H35.5004ZM45.7698 61.8574V47.8607H43.7698V61.8574H45.7698ZM44.7698 48.8607H48.0109V46.8607H44.7698V48.8607ZM47.1556 48.3789L52.922 57.8967L54.6326 56.8603L48.8662 47.3426L47.1556 48.3789ZM53.7773 56.3785H52.0673V58.3785H53.7773V56.3785ZM52.9289 57.8861L58.5362 48.3683L56.813 47.3531L51.2057 56.8709L52.9289 57.8861ZM57.6746 48.8607H60.9157V46.8607H57.6746V48.8607ZM59.9157 47.8636L59.9555 61.8603L61.9555 61.8546L61.9157 47.8579L59.9157 47.8636ZM60.9555 60.8574H57.3366V62.8574H60.9555V60.8574ZM58.3366 61.8527L58.2968 53.3947L56.2968 53.4041L56.3366 61.8621L58.3366 61.8527ZM57.2968 54.3994H57.9132V52.3994H57.2968V54.3994ZM57.053 52.8895L52.8574 59.9679L54.5779 60.9877L58.7735 53.9093L57.053 52.8895ZM53.7177 59.4778H51.9678V61.4778H53.7177V59.4778ZM52.8217 59.9573L48.5068 52.8789L46.7991 53.9199L51.114 60.9983L52.8217 59.9573ZM47.653 54.3994H48.4086V52.3994H47.653V54.3994ZM47.4086 53.3994V61.8574H49.4086V53.3994H47.4086ZM48.4086 60.8574H44.7698V62.8574H48.4086V60.8574ZM63.5483 61.8574V47.8607H61.5483V61.8574H63.5483ZM62.5483 48.8607H66.4853V46.8607H62.5483V48.8607ZM65.4853 47.8607V61.8574H67.4853V47.8607H65.4853ZM66.4853 60.8574H62.5483V62.8574H66.4853V60.8574ZM74.5159 61.1374C72.649 61.1374 71.324 60.6275 70.4048 59.7245L69.0031 61.1511C70.3905 62.5142 72.2735 63.1374 74.5159 63.1374V61.1374ZM70.4048 59.7245C69.4936 58.8292 68.974 57.5107 68.974 55.6189H66.974C66.974 57.8861 67.6078 59.7802 69.0031 61.1511L70.4048 59.7245ZM68.974 55.6189V47.8607H66.974V55.6189H68.974ZM67.974 48.8607H71.9111V46.8607H67.974V48.8607ZM70.9111 47.8607V55.4989H72.9111V47.8607H70.9111ZM70.9111 55.4989C70.9111 56.7817 71.1505 57.9481 71.8609 58.7442L73.3531 57.4125C73.1356 57.1688 72.9111 56.6156 72.9111 55.4989H70.9111ZM71.8703 58.7546C72.5686 59.5152 73.5042 59.8582 74.5557 59.8582V57.8582C73.9634 57.8582 73.5999 57.6812 73.3437 57.4021L71.8703 58.7546ZM74.5557 59.8582C75.6064 59.8582 76.5425 59.5152 77.2305 58.7442L75.7384 57.4125C75.4985 57.6812 75.1487 57.8582 74.5557 57.8582V59.8582ZM77.2305 58.7442C77.941 57.9481 78.1804 56.7817 78.1804 55.4989H76.1804C76.1804 56.6156 75.9558 57.1688 75.7384 57.4125L77.2305 58.7442ZM78.1804 55.4989V47.8607H76.1804V55.4989H78.1804ZM77.1804 48.8607H81.0578V46.8607H77.1804V48.8607ZM80.0578 47.8607V55.6189H82.0578V47.8607H80.0578ZM80.0578 55.6189C80.0578 57.5107 79.5383 58.8292 78.6271 59.7245L80.0287 61.1511C81.4241 59.7802 82.0578 57.8862 82.0578 55.6189H80.0578ZM78.6271 59.7245C77.7079 60.6275 76.3829 61.1374 74.5159 61.1374V63.1374C76.7584 63.1374 78.6413 62.5142 80.0287 61.1511L78.6271 59.7245ZM83.5319 61.8574V47.8607H81.5319V61.8574H83.5319ZM82.5319 48.8607H85.773V46.8607H82.5319V48.8607ZM84.9177 48.3789L90.6842 57.8967L92.3947 56.8603L86.6283 47.3426L84.9177 48.3789ZM91.5394 56.3785H89.8294V58.3785H91.5394V56.3785ZM90.691 57.8861L96.2983 48.3683L94.5752 47.3531L88.9678 56.8709L90.691 57.8861ZM95.4367 48.8607H98.6779V46.8607H95.4367V48.8607ZM97.6779 47.8636L97.7176 61.8603L99.7176 61.8546L99.6779 47.8579L97.6779 47.8636ZM98.7176 60.8574H95.0987V62.8574H98.7176V60.8574ZM96.0987 61.8527L96.0589 53.3947L94.059 53.4041L94.0987 61.8621L96.0987 61.8527ZM95.059 54.3994H95.6754V52.3994H95.059V54.3994ZM94.8151 52.8895L90.6196 59.9679L92.34 60.9877L96.5356 53.9093L94.8151 52.8895ZM91.4798 59.4778H89.73V61.4778H91.4798V59.4778ZM90.5838 59.9573L86.269 52.8789L84.5612 53.9199L88.8761 60.9983L90.5838 59.9573ZM85.4151 54.3994H86.1707V52.3994H85.4151V54.3994ZM85.1707 53.3994V61.8574H87.1707V53.3994H85.1707ZM86.1707 60.8574H82.5319V62.8574H86.1707V60.8574ZM102.62 62.2548L108.048 49.7177L106.213 48.923L100.785 61.4601L102.62 62.2548ZM106.284 49.8519L107.337 51.5315L109.032 50.4685L107.978 48.7889L106.284 49.8519ZM108.185 50H101.126V52H108.185V50ZM101.874 51.6628L103.485 49.8432L101.987 48.5176L100.377 50.3372L101.874 51.6628ZM101.736 49.1804V53.1595H103.736V49.1804H101.736ZM102.736 52.1595H99.3758V54.1595H102.736V52.1595ZM100.376 53.1595V47.8607H98.3758V53.1595H100.376ZM99.3758 48.8607H110.909V46.8607H99.3758V48.8607ZM109.909 47.8607V50.3401H111.909V47.8607H109.909ZM109.989 49.9479L105.077 61.4652L106.917 62.2497L111.829 50.7324L109.989 49.9479ZM105.997 60.8574H101.702V62.8574H105.997V60.8574ZM116.055 48.5808C117.235 48.5808 118.197 48.8139 118.977 49.2388L119.934 47.4824C118.805 46.8676 117.5 46.5808 116.055 46.5808V48.5808ZM118.982 49.2415C119.763 49.6608 120.371 50.2821 120.814 51.139L122.591 50.2211C121.973 49.0251 121.084 48.1002 119.929 47.4797L118.982 49.2415ZM120.821 51.1528C121.266 51.9813 121.518 53.0733 121.518 54.4792H123.518C123.518 52.8457 123.226 51.405 122.584 50.2073L120.821 51.1528ZM121.518 54.4792C121.518 55.9759 121.225 57.1866 120.689 58.1529L122.438 59.1235C123.174 57.797 123.518 56.235 123.518 54.4792H121.518ZM120.687 58.1564C120.155 59.1246 119.424 59.8509 118.484 60.3572L119.433 62.118C120.72 61.4246 121.726 60.4179 122.44 59.12L120.687 58.1564ZM118.48 60.3596C117.55 60.8665 116.434 61.1374 115.101 61.1374V63.1374C116.71 63.1374 118.166 62.8084 119.437 62.1156L118.48 60.3596ZM115.101 61.1374C114.414 61.1374 113.757 61.0541 113.126 60.8898L112.622 62.8251C113.423 63.034 114.25 63.1374 115.101 63.1374V61.1374ZM113.109 60.8855C112.475 60.732 111.961 60.5212 111.551 60.2673L110.499 61.968C111.122 62.3539 111.841 62.6363 112.639 62.8294L113.109 60.8855ZM111.918 61.5679L113.349 58.7285L111.563 57.8281L110.132 60.6674L111.918 61.5679ZM111.881 59.096C112.368 59.4387 112.89 59.6883 113.445 59.828L113.933 57.8883C113.64 57.8148 113.341 57.6778 113.032 57.4606L111.881 59.096ZM113.481 59.8361C113.987 59.9442 114.501 59.9981 115.021 59.9981V57.9981C114.64 57.9981 114.266 57.9587 113.898 57.8802L113.481 59.8361ZM115.021 59.9981C116.313 59.9981 117.445 59.5967 118.303 58.7161L116.87 57.3206C116.455 57.7463 115.877 57.9981 115.021 57.9981V59.9981ZM118.303 58.7161C119.18 57.8155 119.541 56.5735 119.541 55.159H117.541C117.541 56.2507 117.265 56.9148 116.87 57.3206L118.303 58.7161ZM119.541 55.159C119.541 55.1586 119.541 55.1581 119.541 55.1577C119.541 55.1573 119.541 55.1568 119.541 55.1564C119.541 55.1559 119.541 55.1555 119.541 55.155C119.541 55.1546 119.541 55.1541 119.541 55.1537C119.541 55.1533 119.541 55.1528 119.541 55.1524C119.541 55.1519 119.541 55.1515 119.541 55.151C119.541 55.1506 119.541 55.1502 119.541 55.1497C119.541 55.1493 119.541 55.1488 119.541 55.1484C119.541 55.148 119.541 55.1475 119.541 55.1471C119.541 55.1466 119.541 55.1462 119.541 55.1457C119.541 55.1453 119.541 55.1448 119.541 55.1444C119.541 55.144 119.541 55.1435 119.541 55.1431C119.541 55.1426 119.541 55.1422 119.541 55.1417C119.541 55.1413 119.541 55.1409 119.541 55.1404C119.541 55.14 119.541 55.1395 119.541 55.1391C119.541 55.1386 119.541 55.1382 119.541 55.1378C119.541 55.1373 119.541 55.1369 119.541 55.1364C119.541 55.136 119.541 55.1355 119.541 55.1351C119.541 55.1346 119.541 55.1342 119.541 55.1338C119.541 55.1333 119.541 55.1329 119.541 55.1324C119.541 55.132 119.541 55.1315 119.541 55.1311C119.541 55.1307 119.541 55.1302 119.541 55.1298C119.541 55.1293 119.541 55.1289 119.541 55.1284C119.541 55.128 119.541 55.1276 119.541 55.1271C119.541 55.1267 119.541 55.1262 119.541 55.1258C119.541 55.1253 119.541 55.1249 119.541 55.1244C119.541 55.124 119.541 55.1236 119.541 55.1231C119.541 55.1227 119.541 55.1222 119.541 55.1218C119.541 55.1213 119.541 55.1209 119.541 55.1205C119.541 55.12 119.541 55.1196 119.541 55.1191C119.541 55.1187 119.541 55.1182 119.541 55.1178C119.541 55.1173 119.541 55.1169 119.541 55.1165C119.541 55.116 119.541 55.1156 119.541 55.1151C119.541 55.1147 119.541 55.1142 119.541 55.1138C119.541 55.1133 119.541 55.1129 119.541 55.1125C119.541 55.112 119.541 55.1116 119.541 55.1111C119.541 55.1107 119.541 55.1102 119.541 55.1098C119.541 55.1093 119.541 55.1089 119.541 55.1085C119.541 55.108 119.541 55.1076 119.541 55.1071C119.541 55.1067 119.541 55.1062 119.541 55.1058C119.541 55.1053 119.541 55.1049 119.541 55.1045C119.541 55.104 119.541 55.1036 119.541 55.1031C119.541 55.1027 119.541 55.1022 119.541 55.1018C119.541 55.1013 119.541 55.1009 119.541 55.1004C119.541 55.1 119.541 55.0996 119.541 55.0991C119.541 55.0987 119.541 55.0982 119.541 55.0978C119.541 55.0973 119.541 55.0969 119.541 55.0964C119.541 55.096 119.541 55.0956 119.541 55.0951C119.541 55.0947 119.541 55.0942 119.541 55.0938C119.541 55.0933 119.541 55.0929 119.541 55.0924C119.541 55.092 119.541 55.0915 119.541 55.0911C119.541 55.0907 119.541 55.0902 119.541 55.0898C119.541 55.0893 119.541 55.0889 119.541 55.0884C119.541 55.088 119.541 55.0875 119.541 55.0871C119.541 55.0866 119.541 55.0862 119.541 55.0858C119.541 55.0853 119.541 55.0849 119.541 55.0844C119.541 55.084 119.541 55.0835 119.541 55.0831C119.541 55.0826 119.541 55.0822 119.541 55.0817C119.541 55.0813 119.541 55.0809 119.541 55.0804C119.541 55.08 119.541 55.0795 119.541 55.0791C119.541 55.0786 119.541 55.0782 119.541 55.0777C119.541 55.0773 119.541 55.0768 119.541 55.0764C119.541 55.076 119.541 55.0755 119.541 55.0751C119.541 55.0746 119.541 55.0742 119.541 55.0737C119.541 55.0733 119.541 55.0728 119.541 55.0724C119.541 55.0719 119.541 55.0715 119.541 55.071C119.541 55.0706 119.541 55.0702 119.541 55.0697C119.541 55.0693 119.541 55.0688 119.541 55.0684C119.541 55.0679 119.541 55.0675 119.541 55.067C119.541 55.0666 119.541 55.0661 119.541 55.0657C119.541 55.0653 119.541 55.0648 119.541 55.0644C119.541 55.0639 119.541 55.0635 119.541 55.063C119.541 55.0626 119.541 55.0621 119.541 55.0617C119.541 55.0612 119.541 55.0608 119.541 55.0603C119.541 55.0599 119.541 55.0594 119.541 55.059C119.541 55.0586 119.541 55.0581 119.541 55.0577C119.541 55.0572 119.541 55.0568 119.541 55.0563C119.541 55.0559 119.541 55.0554 119.541 55.055C119.541 55.0545 119.541 55.0541 119.541 55.0536C119.541 55.0532 119.541 55.0528 119.541 55.0523C119.541 55.0519 119.541 55.0514 119.541 55.051C119.541 55.0505 119.541 55.0501 119.541 55.0496C119.541 55.0492 119.541 55.0487 119.541 55.0483C119.541 55.0478 119.541 55.0474 119.541 55.0469C119.541 55.0465 119.541 55.0461 119.541 55.0456C119.541 55.0452 119.541 55.0447 119.541 55.0443C119.541 55.0438 119.541 55.0434 119.541 55.0429C119.541 55.0425 119.541 55.042 119.541 55.0416C119.541 55.0411 119.541 55.0407 119.541 55.0402C119.541 55.0398 119.541 55.0393 119.541 55.0389C119.541 55.0384 119.541 55.038 119.541 55.0376C119.541 55.0371 119.541 55.0367 119.541 55.0362C119.541 55.0358 119.541 55.0353 119.541 55.0349C119.541 55.0344 119.541 55.034 119.541 55.0335C119.541 55.0331 119.541 55.0326 119.541 55.0322C119.541 55.0317 119.541 55.0313 119.541 55.0308C119.541 55.0304 119.541 55.03 119.541 55.0295C119.541 55.0291 119.541 55.0286 119.541 55.0282C119.541 55.0277 119.541 55.0273 119.541 55.0268C119.541 55.0264 119.541 55.0259 119.541 55.0255C119.541 55.025 119.541 55.0246 119.541 55.0241C119.541 55.0237 119.541 55.0232 119.541 55.0228C119.541 55.0223 119.541 55.0219 119.541 55.0214C119.541 55.021 119.541 55.0206 119.541 55.0201C119.541 55.0197 119.541 55.0192 119.541 55.0188C119.541 55.0183 119.541 55.0179 119.541 55.0174C119.541 55.017 119.541 55.0165 119.541 55.0161C119.541 55.0156 119.541 55.0152 119.541 55.0147C119.541 55.0143 119.541 55.0138 119.541 55.0134C119.541 55.0129 119.541 55.0125 119.541 55.012C119.541 55.0116 119.541 55.0111 119.541 55.0107C119.541 55.0102 119.541 55.0098 119.541 55.0093C119.541 55.0089 119.541 55.0085 119.541 55.008C119.541 55.0076 119.541 55.0071 119.541 55.0067C119.541 55.0062 119.541 55.0058 119.541 55.0053C119.541 55.0049 119.541 55.0044 119.541 55.004C119.541 55.0035 119.541 55.0031 119.541 55.0026C119.541 55.0022 119.541 55.0017 119.541 55.0013C119.541 55.0008 119.541 55.0004 119.541 54.9999C119.541 54.9995 119.541 54.999 119.541 54.9986C119.541 54.9981 119.541 54.9977 119.541 54.9972C119.541 54.9968 119.541 54.9963 119.541 54.9959C119.541 54.9954 119.541 54.995 119.541 54.9945C119.541 54.9941 119.541 54.9936 119.541 54.9932C119.541 54.9927 119.541 54.9923 119.541 54.9918C119.541 54.9914 119.541 54.991 119.541 54.9905C119.541 54.9901 119.541 54.9896 119.541 54.9892C119.541 54.9887 119.541 54.9883 119.541 54.9878C119.541 54.9874 119.541 54.9869 119.541 54.9865C119.541 54.986 119.541 54.9856 119.541 54.9851C119.541 54.9847 119.541 54.9842 119.541 54.9838C119.541 54.9833 119.541 54.9829 119.541 54.9824C119.541 54.982 119.541 54.9815 119.541 54.9811C119.541 54.9806 119.541 54.9802 119.541 54.9797C119.541 54.9793 119.541 54.9788 119.541 54.9784C119.541 54.9779 119.541 54.9775 119.541 54.977C119.541 54.9766 119.541 54.9761 119.541 54.9757C119.541 54.9752 119.541 54.9748 119.541 54.9743C119.541 54.9739 119.541 54.9734 119.541 54.973C119.541 54.9725 119.541 54.9721 119.541 54.9716C119.541 54.9712 119.541 54.9707 119.541 54.9703C119.541 54.9698 119.541 54.9694 119.541 54.9689C119.541 54.9685 119.541 54.968 119.541 54.9676C119.541 54.9671 119.541 54.9667 119.541 54.9662C119.541 54.9658 119.541 54.9653 119.541 54.9649C119.541 54.9644 119.541 54.964 119.541 54.9635C119.541 54.9631 119.541 54.9626 119.541 54.9622C119.541 54.9617 119.541 54.9613 119.541 54.9608C119.541 54.9604 119.541 54.9599 119.541 54.9595C119.541 54.959 119.541 54.9586 119.541 54.9581C119.541 54.9577 119.541 54.9572 119.541 54.9568C119.541 54.9563 119.541 54.9559 119.541 54.9554C119.541 54.955 119.541 54.9545 119.541 54.9541C119.541 54.9536 119.541 54.9532 119.541 54.9527C119.541 54.9523 119.541 54.9518 119.541 54.9514C119.541 54.9509 119.541 54.9505 119.541 54.95C119.541 54.9496 119.541 54.9491 119.541 54.9487C119.541 54.9482 119.541 54.9478 119.541 54.9473C119.541 54.9469 119.541 54.9464 119.541 54.946C119.541 54.9455 119.541 54.9451 119.541 54.9446C119.541 54.9442 119.541 54.9437 119.541 54.9433C119.541 54.9428 119.541 54.9424 119.541 54.9419C119.541 54.9415 119.541 54.941 119.541 54.9406C119.541 54.9401 119.541 54.9397 119.541 54.9392C119.541 54.9388 119.541 54.9383 119.541 54.9379C119.541 54.9374 119.541 54.937 119.541 54.9365C119.541 54.936 119.541 54.9356 119.541 54.9351C119.541 54.9347 119.541 54.9342 119.541 54.9338C119.541 54.9333 119.541 54.9329 119.541 54.9324C119.541 54.932 119.541 54.9315 119.541 54.9311C119.541 54.9306 119.541 54.9302 119.541 54.9297C119.541 54.9293 119.541 54.9288 119.541 54.9284C119.541 54.9279 119.541 54.9275 119.541 54.927C119.541 54.9266 119.541 54.9261 119.541 54.9257C119.541 54.9252 119.541 54.9248 119.541 54.9243C119.541 54.9239 119.541 54.9234 119.541 54.923C119.541 54.9225 119.541 54.9221 119.541 54.9216C119.541 54.9212 119.541 54.9207 119.541 54.9203C119.541 54.9198 119.541 54.9193 119.541 54.9189C119.541 54.9184 119.541 54.918 119.541 54.9175C119.541 54.9171 119.541 54.9166 119.541 54.9162C119.541 54.9157 119.541 54.9153 119.541 54.9148C119.541 54.9144 119.541 54.9139 119.541 54.9135C119.541 54.913 119.541 54.9126 119.541 54.9121C119.541 54.9117 119.541 54.9112 119.541 54.9108C119.541 54.9103 119.541 54.9099 119.541 54.9094C119.541 54.909 119.541 54.9085 119.541 54.9081C119.541 54.9076 119.541 54.9071 119.541 54.9067C119.541 54.9062 119.541 54.9058 119.541 54.9053C119.541 54.9049 119.541 54.9044 119.541 54.904C119.541 54.9035 119.541 54.9031 119.541 54.9026C119.541 54.9022 119.541 54.9017 119.541 54.9013C119.541 54.9008 119.541 54.9004 119.541 54.8999C119.541 54.8995 119.541 54.899 119.541 54.8986C119.541 54.8981 119.541 54.8976 119.541 54.8972C119.541 54.8967 119.541 54.8963 119.541 54.8958C119.541 54.8954 119.541 54.8949 119.541 54.8945C119.541 54.894 119.541 54.8936 119.541 54.8931C119.541 54.8927 119.541 54.8922 119.541 54.8918C119.541 54.8913 119.541 54.8909 119.541 54.8904C119.541 54.89 119.541 54.8895 119.541 54.889C119.541 54.8886 119.541 54.8881 119.541 54.8877C119.541 54.8872 119.541 54.8868 119.541 54.8863C119.541 54.8859 119.541 54.8854 119.541 54.885C119.541 54.8845 119.541 54.8841 119.541 54.8836C119.541 54.8832 119.541 54.8827 119.541 54.8823C119.541 54.8818 119.541 54.8813 119.541 54.8809C119.541 54.8804 119.541 54.88 119.541 54.8795C119.541 54.8791 119.541 54.8786 119.541 54.8782C119.541 54.8777 119.541 54.8773 119.541 54.8768C119.541 54.8764 119.541 54.8759 119.541 54.8755C119.541 54.875 119.541 54.8745 119.541 54.8741C119.541 54.8736 119.541 54.8732 119.541 54.8727C119.541 54.8723 119.541 54.8718 119.541 54.8714C119.541 54.8709 119.541 54.8705 119.541 54.87C119.541 54.8696 119.541 54.8691 119.541 54.8686C119.541 54.8682 119.541 54.8677 119.541 54.8673C119.541 54.8668 119.541 54.8664 119.541 54.8659C119.541 54.8655 119.541 54.865 119.541 54.8646C119.541 54.8641 119.541 54.8637 119.541 54.8632C119.541 54.8628 119.541 54.8623 119.541 54.8618C119.541 54.8614 119.541 54.8609 119.541 54.8605C119.541 54.86 119.541 54.8596 119.541 54.8591C119.541 54.8587 119.541 54.8582 119.541 54.8578C119.541 54.8573 119.541 54.8569 119.541 54.8564C119.541 54.8559 119.541 54.8555 119.541 54.855C119.541 54.8546 119.541 54.8541 119.541 54.8537C119.541 54.8532 119.541 54.8528 119.541 54.8523C119.541 54.8519 119.541 54.8514 119.541 54.8509C119.541 54.8505 119.541 54.85 119.541 54.8496C119.541 54.8491 119.541 54.8487 119.541 54.8482C119.541 54.8478 119.541 54.8473 119.541 54.8469C119.541 54.8464 119.541 54.846 119.541 54.8455C119.541 54.845 119.541 54.8446 119.541 54.8441C119.541 54.8437 119.541 54.8432 119.541 54.8428C119.541 54.8423 119.541 54.8419 119.541 54.8414C119.541 54.841 119.541 54.8405 119.541 54.84C119.541 54.8396 119.541 54.8391 119.541 54.8387C119.541 54.8382 119.541 54.8378 119.541 54.8373C119.541 54.8369 119.541 54.8364 119.541 54.8359C119.541 54.8355 119.541 54.835 119.541 54.8346C119.541 54.8341 119.541 54.8337 119.541 54.8332C119.541 54.8328 119.541 54.8323 119.541 54.8319C119.541 54.8314 119.541 54.8309 119.541 54.8305C119.541 54.83 119.541 54.8296 119.541 54.8291C119.541 54.8287 119.541 54.8282 119.541 54.8278C119.541 54.8273 119.541 54.8268 119.541 54.8264C119.541 54.8259 119.541 54.8255 119.541 54.825C119.541 54.8246 119.541 54.8241 119.541 54.8237C119.541 54.8232 119.541 54.8228 119.541 54.8223C119.541 54.8218 119.541 54.8214 119.541 54.8209C119.541 54.8205 119.541 54.82 119.541 54.8196C119.541 54.8191 119.541 54.8187 119.541 54.8182C119.541 54.8177 119.541 54.8173 119.541 54.8168C119.541 54.8164 119.541 54.8159 119.541 54.8155C119.541 54.815 119.541 54.8146 119.541 54.8141C119.541 54.8136 119.541 54.8132 119.541 54.8127C119.541 54.8123 119.541 54.8118 119.541 54.8114C119.541 54.8109 119.541 54.8105 119.541 54.81C119.541 54.8095 119.541 54.8091 119.541 54.8086C119.541 54.8082 119.541 54.8077 119.541 54.8073C119.541 54.8068 119.541 54.8064 119.541 54.8059C119.541 54.8054 119.541 54.805 119.541 54.8045C119.541 54.8041 119.541 54.8036 119.541 54.8032C119.541 54.8027 119.541 54.8022 119.541 54.8018C119.541 54.8013 119.541 54.8009 119.541 54.8004C119.541 54.8 119.541 54.7995 119.541 54.7991C119.541 54.7986 119.541 54.7981 119.541 54.7977C119.541 54.7972 119.541 54.7968 119.541 54.7963C119.541 54.7959 119.541 54.7954 119.541 54.7949C119.541 54.7945 119.541 54.794 119.541 54.7936C119.541 54.7931 119.541 54.7927 119.541 54.7922C119.541 54.7918 119.541 54.7913 119.541 54.7908C119.541 54.7904 119.541 54.7899 119.541 54.7895C119.541 54.789 119.541 54.7886 119.541 54.7881C119.541 54.7876 119.541 54.7872 119.541 54.7867C119.541 54.7863 119.541 54.7858 119.541 54.7854C119.541 54.7849 119.541 54.7844 119.541 54.784C119.541 54.7835 119.541 54.7831 119.541 54.7826C119.541 54.7822 119.541 54.7817 119.541 54.7813C119.541 54.7808 119.541 54.7803 119.541 54.7799C119.541 54.7794 119.541 54.779 119.541 54.7785C119.541 54.7781 119.541 54.7776 119.541 54.7771C119.541 54.7767 119.541 54.7762 119.541 54.7758C119.541 54.7753 119.541 54.7749 119.541 54.7744C119.541 54.7739 119.541 54.7735 119.541 54.773C119.541 54.7726 119.541 54.7721 119.541 54.7717C119.541 54.7712 119.541 54.7707 119.541 54.7703C119.541 54.7698 119.541 54.7694 119.541 54.7689C119.541 54.7685 119.541 54.768 119.541 54.7675C119.541 54.7671 119.541 54.7666 119.541 54.7662C119.541 54.7657 119.541 54.7652 119.541 54.7648C119.541 54.7643 119.541 54.7639 119.541 54.7634C119.541 54.763 119.541 54.7625 119.541 54.762C119.541 54.7616 119.541 54.7611 119.541 54.7607C119.541 54.7602 119.541 54.7598 119.541 54.7593C119.541 54.7588 119.541 54.7584 119.541 54.7579C119.541 54.7575 119.541 54.757 119.541 54.7566C119.541 54.7561 119.541 54.7556 119.541 54.7552C119.541 54.7547 119.541 54.7543 119.541 54.7538C119.541 54.7534 119.541 54.7529 119.541 54.7524C119.541 54.752 119.541 54.7515 119.541 54.7511C119.541 54.7506 119.541 54.7501 119.541 54.7497C119.541 54.7492 119.541 54.7488 119.541 54.7483C119.541 54.7479 119.541 54.7474 119.541 54.7469C119.541 54.7465 119.541 54.746 119.541 54.7456C119.541 54.7451 119.541 54.7446 119.541 54.7442C119.541 54.7437 119.541 54.7433 119.541 54.7428C119.541 54.7424 119.541 54.7419 119.541 54.7414C119.541 54.741 119.541 54.7405 119.541 54.7401C119.541 54.7396 119.541 54.7391 119.541 54.7387C119.541 54.7382 119.541 54.7378 119.541 54.7373C119.541 54.7369 119.541 54.7364 119.541 54.7359C119.541 54.7355 119.541 54.735 119.541 54.7346C119.541 54.7341 119.541 54.7336 119.541 54.7332C119.541 54.7327 119.541 54.7323 119.541 54.7318C119.541 54.7314 119.541 54.7309 119.541 54.7304C119.541 54.73 119.541 54.7295 119.541 54.7291C119.541 54.7286 119.541 54.7281 119.541 54.7277C119.541 54.7272 119.541 54.7268 119.541 54.7263C119.541 54.7258 119.541 54.7254 119.541 54.7249C119.541 54.7245 119.541 54.724 119.541 54.7236C119.541 54.7231 119.541 54.7226 119.541 54.7222C119.541 54.7217 119.541 54.7213 119.541 54.7208C119.541 54.7203 119.541 54.7199 119.541 54.7194C119.541 54.719 119.541 54.7185 119.541 54.718C119.541 54.7176 119.541 54.7171 119.541 54.7167C119.541 54.7162 119.541 54.7157 119.541 54.7153C119.541 54.7148 119.541 54.7144 119.541 54.7139C119.541 54.7135 119.541 54.713 119.541 54.7125C119.541 54.7121 119.541 54.7116 119.541 54.7112C119.541 54.7107 119.541 54.7102 119.541 54.7098C119.541 54.7093 119.541 54.7089 119.541 54.7084C119.541 54.7079 119.541 54.7075 119.541 54.707C119.541 54.7066 119.541 54.7061 119.541 54.7056C119.541 54.7052 119.541 54.7047 119.541 54.7043C119.541 54.7038 119.541 54.7033 119.541 54.7029C119.541 54.7024 119.541 54.702 119.541 54.7015C119.541 54.701 119.541 54.7006 119.541 54.7001C119.541 54.6997 119.541 54.6992 119.541 54.6987C119.541 54.6983 119.541 54.6978 119.541 54.6974C119.541 54.6969 119.541 54.6964 119.541 54.696C119.541 54.6955 119.541 54.6951 119.541 54.6946C119.541 54.6941 119.541 54.6937 119.541 54.6932C119.541 54.6928 119.541 54.6923 119.541 54.6918C119.541 54.6914 119.541 54.6909 119.541 54.6905C119.541 54.69 119.541 54.6895 119.541 54.6891C119.541 54.6886 119.541 54.6882 119.541 54.6877C119.541 54.6872 119.541 54.6868 119.541 54.6863C119.541 54.6859 119.541 54.6854 119.541 54.6849C119.541 54.6845 119.541 54.684 119.541 54.6836C119.541 54.6831 119.541 54.6826 119.541 54.6822C119.541 54.6817 119.541 54.6813 119.541 54.6808C119.541 54.6803 119.541 54.6799 119.541 54.6794C119.541 54.679 119.541 54.6785 119.541 54.678C119.541 54.6776 119.541 54.6771 119.541 54.6766C119.541 54.6762 119.541 54.6757 119.541 54.6753C119.541 54.6748 119.541 54.6743 119.541 54.6739C119.541 54.6734 119.541 54.673 119.541 54.6725C119.541 54.672 119.541 54.6716 119.541 54.6711C119.541 54.6707 119.541 54.6702 119.541 54.6697C119.541 54.6693 119.541 54.6688 119.541 54.6684C119.541 54.6679 119.541 54.6674 119.541 54.667C119.541 54.6665 119.541 54.666 119.541 54.6656C119.541 54.6651 119.541 54.6647 119.541 54.6642C119.541 54.6637 119.541 54.6633 119.541 54.6628C119.541 54.6624 119.541 54.6619 119.541 54.6614C119.541 54.661 119.541 54.6605 119.541 54.6601C119.541 54.6596 119.541 54.6591 119.541 54.6587C119.541 54.6582 119.541 54.6577 119.541 54.6573C119.541 54.6568 119.541 54.6564 119.541 54.6559C119.541 54.6554 119.541 54.655 119.541 54.6545C119.541 54.6541 119.541 54.6536 119.541 54.6531C119.541 54.6527 119.541 54.6522 119.541 54.6517C119.541 54.6513 119.541 54.6508 119.541 54.6504C119.541 54.6499 119.541 54.6494 119.541 54.649C119.541 54.6485 119.541 54.6481 119.541 54.6476C119.541 54.6471 119.541 54.6467 119.541 54.6462C119.541 54.6457 119.541 54.6453 119.541 54.6448C119.541 54.6444 119.541 54.6439 119.541 54.6434C119.541 54.643 119.541 54.6425 119.541 54.642C119.541 54.6416 119.541 54.6411 119.541 54.6407C119.541 54.6402 119.541 54.6397 119.541 54.6393C119.541 54.6388 119.541 54.6384 119.541 54.6379C119.541 54.6374 119.541 54.637 119.541 54.6365C119.541 54.636 119.541 54.6356 119.541 54.6351C119.541 54.6347 119.541 54.6342 119.541 54.6337C119.541 54.6333 119.541 54.6328 119.541 54.6323C119.541 54.6319 119.541 54.6314 119.541 54.631C119.541 54.6305 119.541 54.63 119.541 54.6296C119.541 54.6291 119.541 54.6286 119.541 54.6282C119.541 54.6277 119.541 54.6273 119.541 54.6268C119.541 54.6263 119.541 54.6259 119.541 54.6254C119.541 54.6249 119.541 54.6245 119.541 54.624C119.541 54.6236 119.541 54.6231 119.541 54.6226C119.541 54.6222 119.541 54.6217 119.541 54.6212C119.541 54.6208 119.541 54.6203 119.541 54.6199C119.541 54.6194 119.541 54.6189 119.541 54.6185C119.541 54.618 119.541 54.6175 119.541 54.6171C119.541 54.6166 119.541 54.6162 119.541 54.6157C119.541 54.6152 119.541 54.6148 119.541 54.6143C119.541 54.6138 119.541 54.6134 119.541 54.6129C119.541 54.6124 119.541 54.612 119.541 54.6115C119.541 54.6111 119.541 54.6106 119.541 54.6101C119.541 54.6097 119.541 54.6092 119.541 54.6087C119.541 54.6083 119.541 54.6078 119.541 54.6074C119.541 54.6069 119.541 54.6064 119.541 54.606C119.541 54.6055 119.541 54.605 119.541 54.6046C119.541 54.6041 119.541 54.6036 119.541 54.6032C119.541 54.6027 119.541 54.6023 119.541 54.6018C119.541 54.6013 119.541 54.6009 119.541 54.6004C119.541 54.5999 119.541 54.5995 119.541 54.599C119.541 54.5985 119.541 54.5981 119.541 54.5976C119.541 54.5972 119.541 54.5967 119.541 54.5962C119.541 54.5958 119.541 54.5953 119.541 54.5948C119.541 54.5944 119.541 54.5939 119.541 54.5934C119.541 54.593 119.541 54.5925 119.541 54.5921C119.541 54.5916 119.541 54.5911 119.541 54.5907C119.541 54.5902 119.541 54.5897 119.541 54.5893C119.541 54.5888 119.541 54.5883 119.541 54.5879C119.541 54.5874 119.541 54.587 119.541 54.5865C119.541 54.586 119.541 54.5856 119.541 54.5851C119.541 54.5846 119.541 54.5842 119.541 54.5837C119.541 54.5832 119.541 54.5828 119.541 54.5823C119.541 54.5818 119.541 54.5814 119.541 54.5809C119.541 54.5805 119.541 54.58 119.541 54.5795C119.541 54.5791 119.541 54.5786 119.541 54.5781C119.541 54.5777 119.541 54.5772 119.541 54.5767C119.541 54.5763 119.541 54.5758 119.541 54.5753C119.541 54.5749 119.541 54.5744 119.541 54.574C119.541 54.5735 119.541 54.573 119.541 54.5726C119.541 54.5721 119.541 54.5716 119.541 54.5712C119.541 54.5707 119.541 54.5702 119.541 54.5698C119.541 54.5693 119.541 54.5688 119.541 54.5684C119.541 54.5679 119.541 54.5674 119.541 54.567C119.541 54.5665 119.541 54.5661 119.541 54.5656C119.541 54.5651 119.541 54.5647 119.541 54.5642C119.541 54.5637 119.541 54.5633 119.541 54.5628C119.541 54.5623 119.541 54.5619 119.541 54.5614C119.541 54.5609 119.541 54.5605 119.541 54.56C119.541 54.5595 119.541 54.5591 119.541 54.5586C119.541 54.5582 119.541 54.5577 119.541 54.5572C119.541 54.5568 119.541 54.5563 119.541 54.5558C119.541 54.5554 119.541 54.5549 119.541 54.5544C119.541 54.554 119.541 54.5535 119.541 54.553C119.541 54.5526 119.541 54.5521 119.541 54.5516C119.541 54.5512 119.541 54.5507 119.541 54.5502C119.541 54.5498 119.541 54.5493 119.541 54.5488C119.541 54.5484 119.541 54.5479 119.541 54.5475C119.541 54.547 119.541 54.5465 119.541 54.5461C119.541 54.5456 119.541 54.5451 119.541 54.5447C119.541 54.5442 119.541 54.5437 119.541 54.5433C119.541 54.5428 119.541 54.5423 119.541 54.5419C119.541 54.5414 119.541 54.5409 119.541 54.5405C119.541 54.54 119.541 54.5395 119.541 54.5391C119.541 54.5386 119.541 54.5381 119.541 54.5377C119.541 54.5372 119.541 54.5367 119.541 54.5363C119.541 54.5358 119.541 54.5353 119.541 54.5349C119.541 54.5344 119.541 54.5339 119.541 54.5335C119.541 54.533 119.541 54.5325 119.541 54.5321C119.541 54.5316 119.541 54.5312 119.541 54.5307C119.541 54.5302 119.541 54.5298 119.541 54.5293C119.541 54.5288 119.541 54.5284 119.541 54.5279C119.541 54.5274 119.541 54.527 119.541 54.5265C119.541 54.526 119.541 54.5256 119.541 54.5251C119.541 54.5246 119.541 54.5242 119.541 54.5237C119.541 54.5232 119.541 54.5228 119.541 54.5223C119.541 54.5218 119.541 54.5214 119.541 54.5209C119.541 54.5204 119.541 54.52 119.541 54.5195C119.541 54.519 119.541 54.5186 119.541 54.5181C119.541 54.5176 119.541 54.5172 119.541 54.5167C119.541 54.5162 119.541 54.5158 119.541 54.5153C119.541 54.5148 119.541 54.5144 119.541 54.5139C119.541 54.5134 119.541 54.513 119.541 54.5125C119.541 54.512 119.541 54.5116 119.541 54.5111C119.541 54.5106 119.541 54.5102 119.541 54.5097C119.541 54.5092 119.541 54.5088 119.541 54.5083C119.541 54.5078 119.541 54.5074 119.541 54.5069C119.541 54.5064 119.541 54.506 119.541 54.5055C119.541 54.505 119.541 54.5046 119.541 54.5041C119.541 54.5036 119.541 54.5032 119.541 54.5027C119.541 54.5022 119.541 54.5018 119.541 54.5013C119.541 54.5008 119.541 54.5004 119.541 54.4999C119.541 54.4994 119.541 54.499 119.541 54.4985C119.541 54.498 119.541 54.4976 119.541 54.4971C119.541 54.4966 119.541 54.4961 119.541 54.4957C119.541 54.4952 119.541 54.4947 119.541 54.4943C119.541 54.4938 119.541 54.4933 119.541 54.4929C119.541 54.4924 119.541 54.4919 119.541 54.4915C119.541 54.491 119.541 54.4905 119.541 54.4901C119.541 54.4896 119.541 54.4891 119.541 54.4887C119.541 54.4882 119.541 54.4877 119.541 54.4873C119.541 54.4868 119.541 54.4863 119.541 54.4859C119.541 54.4854 119.541 54.4849 119.541 54.4845C119.541 54.484 119.541 54.4835 119.541 54.4831C119.541 54.4826 119.541 54.4821 119.541 54.4817C119.541 54.4812 119.541 54.4807 119.541 54.4803C119.541 54.4798 119.541 54.4793 119.541 54.4788C119.541 54.4784 119.541 54.4779 119.541 54.4774C119.541 54.477 119.541 54.4765 119.541 54.476C119.541 54.4756 119.541 54.4751 119.541 54.4746C119.541 54.4742 119.541 54.4737 119.541 54.4732C119.541 54.4728 119.541 54.4723 119.541 54.4718C119.541 54.4714 119.541 54.4709 119.541 54.4704C119.541 54.47 119.541 54.4695 119.541 54.469C119.541 54.4685 119.541 54.4681 119.541 54.4676C119.541 54.4671 119.541 54.4667 119.541 54.4662C119.541 54.4657 119.541 54.4653 119.541 54.4648C119.541 54.4643 119.541 54.4639 119.541 54.4634C119.541 54.4629 119.541 54.4625 119.541 54.462C119.541 54.4615 119.541 54.4611 119.541 54.4606C119.541 54.4601 119.541 54.4596 119.541 54.4592H117.541C117.541 54.4596 117.541 54.4601 117.541 54.4606C117.541 54.4611 117.541 54.4615 117.541 54.462C117.541 54.4625 117.541 54.4629 117.541 54.4634C117.541 54.4639 117.541 54.4643 117.541 54.4648C117.541 54.4653 117.541 54.4657 117.541 54.4662C117.541 54.4667 117.541 54.4671 117.541 54.4676C117.541 54.4681 117.541 54.4685 117.541 54.469C117.541 54.4695 117.541 54.47 117.541 54.4704C117.541 54.4709 117.541 54.4714 117.541 54.4718C117.541 54.4723 117.541 54.4728 117.541 54.4732C117.541 54.4737 117.541 54.4742 117.541 54.4746C117.541 54.4751 117.541 54.4756 117.541 54.476C117.541 54.4765 117.541 54.477 117.541 54.4774C117.541 54.4779 117.541 54.4784 117.541 54.4788C117.541 54.4793 117.541 54.4798 117.541 54.4803C117.541 54.4807 117.541 54.4812 117.541 54.4817C117.541 54.4821 117.541 54.4826 117.541 54.4831C117.541 54.4835 117.541 54.484 117.541 54.4845C117.541 54.4849 117.541 54.4854 117.541 54.4859C117.541 54.4863 117.541 54.4868 117.541 54.4873C117.541 54.4877 117.541 54.4882 117.541 54.4887C117.541 54.4891 117.541 54.4896 117.541 54.4901C117.541 54.4905 117.541 54.491 117.541 54.4915C117.541 54.4919 117.541 54.4924 117.541 54.4929C117.541 54.4933 117.541 54.4938 117.541 54.4943C117.541 54.4947 117.541 54.4952 117.541 54.4957C117.541 54.4961 117.541 54.4966 117.541 54.4971C117.541 54.4976 117.541 54.498 117.541 54.4985C117.541 54.499 117.541 54.4994 117.541 54.4999C117.541 54.5004 117.541 54.5008 117.541 54.5013C117.541 54.5018 117.541 54.5022 117.541 54.5027C117.541 54.5032 117.541 54.5036 117.541 54.5041C117.541 54.5046 117.541 54.505 117.541 54.5055C117.541 54.506 117.541 54.5064 117.541 54.5069C117.541 54.5074 117.541 54.5078 117.541 54.5083C117.541 54.5088 117.541 54.5092 117.541 54.5097C117.541 54.5102 117.541 54.5106 117.541 54.5111C117.541 54.5116 117.541 54.512 117.541 54.5125C117.541 54.513 117.541 54.5134 117.541 54.5139C117.541 54.5144 117.541 54.5148 117.541 54.5153C117.541 54.5158 117.541 54.5162 117.541 54.5167C117.541 54.5172 117.541 54.5176 117.541 54.5181C117.541 54.5186 117.541 54.519 117.541 54.5195C117.541 54.52 117.541 54.5204 117.541 54.5209C117.541 54.5214 117.541 54.5218 117.541 54.5223C117.541 54.5228 117.541 54.5232 117.541 54.5237C117.541 54.5242 117.541 54.5246 117.541 54.5251C117.541 54.5256 117.541 54.526 117.541 54.5265C117.541 54.527 117.541 54.5274 117.541 54.5279C117.541 54.5284 117.541 54.5288 117.541 54.5293C117.541 54.5298 117.541 54.5302 117.541 54.5307C117.541 54.5312 117.541 54.5316 117.541 54.5321C117.541 54.5325 117.541 54.533 117.541 54.5335C117.541 54.5339 117.541 54.5344 117.541 54.5349C117.541 54.5353 117.541 54.5358 117.541 54.5363C117.541 54.5367 117.541 54.5372 117.541 54.5377C117.541 54.5381 117.541 54.5386 117.541 54.5391C117.541 54.5395 117.541 54.54 117.541 54.5405C117.541 54.5409 117.541 54.5414 117.541 54.5419C117.541 54.5423 117.541 54.5428 117.541 54.5433C117.541 54.5437 117.541 54.5442 117.541 54.5447C117.541 54.5451 117.541 54.5456 117.541 54.5461C117.541 54.5465 117.541 54.547 117.541 54.5475C117.541 54.5479 117.541 54.5484 117.541 54.5488C117.541 54.5493 117.541 54.5498 117.541 54.5502C117.541 54.5507 117.541 54.5512 117.541 54.5516C117.541 54.5521 117.541 54.5526 117.541 54.553C117.541 54.5535 117.541 54.554 117.541 54.5544C117.541 54.5549 117.541 54.5554 117.541 54.5558C117.541 54.5563 117.541 54.5568 117.541 54.5572C117.541 54.5577 117.541 54.5582 117.541 54.5586C117.541 54.5591 117.541 54.5595 117.541 54.56C117.541 54.5605 117.541 54.5609 117.541 54.5614C117.541 54.5619 117.541 54.5623 117.541 54.5628C117.541 54.5633 117.541 54.5637 117.541 54.5642C117.541 54.5647 117.541 54.5651 117.541 54.5656C117.541 54.5661 117.541 54.5665 117.541 54.567C117.541 54.5674 117.541 54.5679 117.541 54.5684C117.541 54.5688 117.541 54.5693 117.541 54.5698C117.541 54.5702 117.541 54.5707 117.541 54.5712C117.541 54.5716 117.541 54.5721 117.541 54.5726C117.541 54.573 117.541 54.5735 117.541 54.574C117.541 54.5744 117.541 54.5749 117.541 54.5753C117.541 54.5758 117.541 54.5763 117.541 54.5767C117.541 54.5772 117.541 54.5777 117.541 54.5781C117.541 54.5786 117.541 54.5791 117.541 54.5795C117.541 54.58 117.541 54.5805 117.541 54.5809C117.541 54.5814 117.541 54.5818 117.541 54.5823C117.541 54.5828 117.541 54.5832 117.541 54.5837C117.541 54.5842 117.541 54.5846 117.541 54.5851C117.541 54.5856 117.541 54.586 117.541 54.5865C117.541 54.587 117.541 54.5874 117.541 54.5879C117.541 54.5883 117.541 54.5888 117.541 54.5893C117.541 54.5897 117.541 54.5902 117.541 54.5907C117.541 54.5911 117.541 54.5916 117.541 54.5921C117.541 54.5925 117.541 54.593 117.541 54.5934C117.541 54.5939 117.541 54.5944 117.541 54.5948C117.541 54.5953 117.541 54.5958 117.541 54.5962C117.541 54.5967 117.541 54.5972 117.541 54.5976C117.541 54.5981 117.541 54.5985 117.541 54.599C117.541 54.5995 117.541 54.5999 117.541 54.6004C117.541 54.6009 117.541 54.6013 117.541 54.6018C117.541 54.6023 117.541 54.6027 117.541 54.6032C117.541 54.6036 117.541 54.6041 117.541 54.6046C117.541 54.605 117.541 54.6055 117.541 54.606C117.541 54.6064 117.541 54.6069 117.541 54.6074C117.541 54.6078 117.541 54.6083 117.541 54.6087C117.541 54.6092 117.541 54.6097 117.541 54.6101C117.541 54.6106 117.541 54.6111 117.541 54.6115C117.541 54.612 117.541 54.6124 117.541 54.6129C117.541 54.6134 117.541 54.6138 117.541 54.6143C117.541 54.6148 117.541 54.6152 117.541 54.6157C117.541 54.6162 117.541 54.6166 117.541 54.6171C117.541 54.6175 117.541 54.618 117.541 54.6185C117.541 54.6189 117.541 54.6194 117.541 54.6199C117.541 54.6203 117.541 54.6208 117.541 54.6212C117.541 54.6217 117.541 54.6222 117.541 54.6226C117.541 54.6231 117.541 54.6236 117.541 54.624C117.541 54.6245 117.541 54.6249 117.541 54.6254C117.541 54.6259 117.541 54.6263 117.541 54.6268C117.541 54.6273 117.541 54.6277 117.541 54.6282C117.541 54.6286 117.541 54.6291 117.541 54.6296C117.541 54.63 117.541 54.6305 117.541 54.631C117.541 54.6314 117.541 54.6319 117.541 54.6323C117.541 54.6328 117.541 54.6333 117.541 54.6337C117.541 54.6342 117.541 54.6347 117.541 54.6351C117.541 54.6356 117.541 54.636 117.541 54.6365C117.541 54.637 117.541 54.6374 117.541 54.6379C117.541 54.6384 117.541 54.6388 117.541 54.6393C117.541 54.6397 117.541 54.6402 117.541 54.6407C117.541 54.6411 117.541 54.6416 117.541 54.642C117.541 54.6425 117.541 54.643 117.541 54.6434C117.541 54.6439 117.541 54.6444 117.541 54.6448C117.541 54.6453 117.541 54.6457 117.541 54.6462C117.541 54.6467 117.541 54.6471 117.541 54.6476C117.541 54.6481 117.541 54.6485 117.541 54.649C117.541 54.6494 117.541 54.6499 117.541 54.6504C117.541 54.6508 117.541 54.6513 117.541 54.6517C117.541 54.6522 117.541 54.6527 117.541 54.6531C117.541 54.6536 117.541 54.6541 117.541 54.6545C117.541 54.655 117.541 54.6554 117.541 54.6559C117.541 54.6564 117.541 54.6568 117.541 54.6573C117.541 54.6577 117.541 54.6582 117.541 54.6587C117.541 54.6591 117.541 54.6596 117.541 54.6601C117.541 54.6605 117.541 54.661 117.541 54.6614C117.541 54.6619 117.541 54.6624 117.541 54.6628C117.541 54.6633 117.541 54.6637 117.541 54.6642C117.541 54.6647 117.541 54.6651 117.541 54.6656C117.541 54.666 117.541 54.6665 117.541 54.667C117.541 54.6674 117.541 54.6679 117.541 54.6684C117.541 54.6688 117.541 54.6693 117.541 54.6697C117.541 54.6702 117.541 54.6707 117.541 54.6711C117.541 54.6716 117.541 54.672 117.541 54.6725C117.541 54.673 117.541 54.6734 117.541 54.6739C117.541 54.6743 117.541 54.6748 117.541 54.6753C117.541 54.6757 117.541 54.6762 117.541 54.6766C117.541 54.6771 117.541 54.6776 117.541 54.678C117.541 54.6785 117.541 54.679 117.541 54.6794C117.541 54.6799 117.541 54.6803 117.541 54.6808C117.541 54.6813 117.541 54.6817 117.541 54.6822C117.541 54.6826 117.541 54.6831 117.541 54.6836C117.541 54.684 117.541 54.6845 117.541 54.6849C117.541 54.6854 117.541 54.6859 117.541 54.6863C117.541 54.6868 117.541 54.6872 117.541 54.6877C117.541 54.6882 117.541 54.6886 117.541 54.6891C117.541 54.6895 117.541 54.69 117.541 54.6905C117.541 54.6909 117.541 54.6914 117.541 54.6918C117.541 54.6923 117.541 54.6928 117.541 54.6932C117.541 54.6937 117.541 54.6941 117.541 54.6946C117.541 54.6951 117.541 54.6955 117.541 54.696C117.541 54.6964 117.541 54.6969 117.541 54.6974C117.541 54.6978 117.541 54.6983 117.541 54.6987C117.541 54.6992 117.541 54.6997 117.541 54.7001C117.541 54.7006 117.541 54.701 117.541 54.7015C117.541 54.702 117.541 54.7024 117.541 54.7029C117.541 54.7033 117.541 54.7038 117.541 54.7043C117.541 54.7047 117.541 54.7052 117.541 54.7056C117.541 54.7061 117.541 54.7066 117.541 54.707C117.541 54.7075 117.541 54.7079 117.541 54.7084C117.541 54.7089 117.541 54.7093 117.541 54.7098C117.541 54.7102 117.541 54.7107 117.541 54.7112C117.541 54.7116 117.541 54.7121 117.541 54.7125C117.541 54.713 117.541 54.7135 117.541 54.7139C117.541 54.7144 117.541 54.7148 117.541 54.7153C117.541 54.7157 117.541 54.7162 117.541 54.7167C117.541 54.7171 117.541 54.7176 117.541 54.718C117.541 54.7185 117.541 54.719 117.541 54.7194C117.541 54.7199 117.541 54.7203 117.541 54.7208C117.541 54.7213 117.541 54.7217 117.541 54.7222C117.541 54.7226 117.541 54.7231 117.541 54.7236C117.541 54.724 117.541 54.7245 117.541 54.7249C117.541 54.7254 117.541 54.7258 117.541 54.7263C117.541 54.7268 117.541 54.7272 117.541 54.7277C117.541 54.7281 117.541 54.7286 117.541 54.7291C117.541 54.7295 117.541 54.73 117.541 54.7304C117.541 54.7309 117.541 54.7314 117.541 54.7318C117.541 54.7323 117.541 54.7327 117.541 54.7332C117.541 54.7336 117.541 54.7341 117.541 54.7346C117.541 54.735 117.541 54.7355 117.541 54.7359C117.541 54.7364 117.541 54.7369 117.541 54.7373C117.541 54.7378 117.541 54.7382 117.541 54.7387C117.541 54.7391 117.541 54.7396 117.541 54.7401C117.541 54.7405 117.541 54.741 117.541 54.7414C117.541 54.7419 117.541 54.7424 117.541 54.7428C117.541 54.7433 117.541 54.7437 117.541 54.7442C117.541 54.7446 117.541 54.7451 117.541 54.7456C117.541 54.746 117.541 54.7465 117.541 54.7469C117.541 54.7474 117.541 54.7479 117.541 54.7483C117.541 54.7488 117.541 54.7492 117.541 54.7497C117.541 54.7501 117.541 54.7506 117.541 54.7511C117.541 54.7515 117.541 54.752 117.541 54.7524C117.541 54.7529 117.541 54.7534 117.541 54.7538C117.541 54.7543 117.541 54.7547 117.541 54.7552C117.541 54.7556 117.541 54.7561 117.541 54.7566C117.541 54.757 117.541 54.7575 117.541 54.7579C117.541 54.7584 117.541 54.7588 117.541 54.7593C117.541 54.7598 117.541 54.7602 117.541 54.7607C117.541 54.7611 117.541 54.7616 117.541 54.762C117.541 54.7625 117.541 54.763 117.541 54.7634C117.541 54.7639 117.541 54.7643 117.541 54.7648C117.541 54.7652 117.541 54.7657 117.541 54.7662C117.541 54.7666 117.541 54.7671 117.541 54.7675C117.541 54.768 117.541 54.7685 117.541 54.7689C117.541 54.7694 117.541 54.7698 117.541 54.7703C117.541 54.7707 117.541 54.7712 117.541 54.7717C117.541 54.7721 117.541 54.7726 117.541 54.773C117.541 54.7735 117.541 54.7739 117.541 54.7744C117.541 54.7749 117.541 54.7753 117.541 54.7758C117.541 54.7762 117.541 54.7767 117.541 54.7771C117.541 54.7776 117.541 54.7781 117.541 54.7785C117.541 54.779 117.541 54.7794 117.541 54.7799C117.541 54.7803 117.541 54.7808 117.541 54.7813C117.541 54.7817 117.541 54.7822 117.541 54.7826C117.541 54.7831 117.541 54.7835 117.541 54.784C117.541 54.7844 117.541 54.7849 117.541 54.7854C117.541 54.7858 117.541 54.7863 117.541 54.7867C117.541 54.7872 117.541 54.7876 117.541 54.7881C117.541 54.7886 117.541 54.789 117.541 54.7895C117.541 54.7899 117.541 54.7904 117.541 54.7908C117.541 54.7913 117.541 54.7918 117.541 54.7922C117.541 54.7927 117.541 54.7931 117.541 54.7936C117.541 54.794 117.541 54.7945 117.541 54.7949C117.541 54.7954 117.541 54.7959 117.541 54.7963C117.541 54.7968 117.541 54.7972 117.541 54.7977C117.541 54.7981 117.541 54.7986 117.541 54.7991C117.541 54.7995 117.541 54.8 117.541 54.8004C117.541 54.8009 117.541 54.8013 117.541 54.8018C117.541 54.8022 117.541 54.8027 117.541 54.8032C117.541 54.8036 117.541 54.8041 117.541 54.8045C117.541 54.805 117.541 54.8054 117.541 54.8059C117.541 54.8064 117.541 54.8068 117.541 54.8073C117.541 54.8077 117.541 54.8082 117.541 54.8086C117.541 54.8091 117.541 54.8095 117.541 54.81C117.541 54.8105 117.541 54.8109 117.541 54.8114C117.541 54.8118 117.541 54.8123 117.541 54.8127C117.541 54.8132 117.541 54.8136 117.541 54.8141C117.541 54.8146 117.541 54.815 117.541 54.8155C117.541 54.8159 117.541 54.8164 117.541 54.8168C117.541 54.8173 117.541 54.8177 117.541 54.8182C117.541 54.8187 117.541 54.8191 117.541 54.8196C117.541 54.82 117.541 54.8205 117.541 54.8209C117.541 54.8214 117.541 54.8218 117.541 54.8223C117.541 54.8228 117.541 54.8232 117.541 54.8237C117.541 54.8241 117.541 54.8246 117.541 54.825C117.541 54.8255 117.541 54.8259 117.541 54.8264C117.541 54.8268 117.541 54.8273 117.541 54.8278C117.541 54.8282 117.541 54.8287 117.541 54.8291C117.541 54.8296 117.541 54.83 117.541 54.8305C117.541 54.8309 117.541 54.8314 117.541 54.8319C117.541 54.8323 117.541 54.8328 117.541 54.8332C117.541 54.8337 117.541 54.8341 117.541 54.8346C117.541 54.835 117.541 54.8355 117.541 54.8359C117.541 54.8364 117.541 54.8369 117.541 54.8373C117.541 54.8378 117.541 54.8382 117.541 54.8387C117.541 54.8391 117.541 54.8396 117.541 54.84C117.541 54.8405 117.541 54.841 117.541 54.8414C117.541 54.8419 117.541 54.8423 117.541 54.8428C117.541 54.8432 117.541 54.8437 117.541 54.8441C117.541 54.8446 117.541 54.845 117.541 54.8455C117.541 54.846 117.541 54.8464 117.541 54.8469C117.541 54.8473 117.541 54.8478 117.541 54.8482C117.541 54.8487 117.541 54.8491 117.541 54.8496C117.541 54.85 117.541 54.8505 117.541 54.8509C117.541 54.8514 117.541 54.8519 117.541 54.8523C117.541 54.8528 117.541 54.8532 117.541 54.8537C117.541 54.8541 117.541 54.8546 117.541 54.855C117.541 54.8555 117.541 54.8559 117.541 54.8564C117.541 54.8569 117.541 54.8573 117.541 54.8578C117.541 54.8582 117.541 54.8587 117.541 54.8591C117.541 54.8596 117.541 54.86 117.541 54.8605C117.541 54.8609 117.541 54.8614 117.541 54.8618C117.541 54.8623 117.541 54.8628 117.541 54.8632C117.541 54.8637 117.541 54.8641 117.541 54.8646C117.541 54.865 117.541 54.8655 117.541 54.8659C117.541 54.8664 117.541 54.8668 117.541 54.8673C117.541 54.8677 117.541 54.8682 117.541 54.8686C117.541 54.8691 117.541 54.8696 117.541 54.87C117.541 54.8705 117.541 54.8709 117.541 54.8714C117.541 54.8718 117.541 54.8723 117.541 54.8727C117.541 54.8732 117.541 54.8736 117.541 54.8741C117.541 54.8745 117.541 54.875 117.541 54.8755C117.541 54.8759 117.541 54.8764 117.541 54.8768C117.541 54.8773 117.541 54.8777 117.541 54.8782C117.541 54.8786 117.541 54.8791 117.541 54.8795C117.541 54.88 117.541 54.8804 117.541 54.8809C117.541 54.8813 117.541 54.8818 117.541 54.8823C117.541 54.8827 117.541 54.8832 117.541 54.8836C117.541 54.8841 117.541 54.8845 117.541 54.885C117.541 54.8854 117.541 54.8859 117.541 54.8863C117.541 54.8868 117.541 54.8872 117.541 54.8877C117.541 54.8881 117.541 54.8886 117.541 54.889C117.541 54.8895 117.541 54.89 117.541 54.8904C117.541 54.8909 117.541 54.8913 117.541 54.8918C117.541 54.8922 117.541 54.8927 117.541 54.8931C117.541 54.8936 117.541 54.894 117.541 54.8945C117.541 54.8949 117.541 54.8954 117.541 54.8958C117.541 54.8963 117.541 54.8967 117.541 54.8972C117.541 54.8976 117.541 54.8981 117.541 54.8986C117.541 54.899 117.541 54.8995 117.541 54.8999C117.541 54.9004 117.541 54.9008 117.541 54.9013C117.541 54.9017 117.541 54.9022 117.541 54.9026C117.541 54.9031 117.541 54.9035 117.541 54.904C117.541 54.9044 117.541 54.9049 117.541 54.9053C117.541 54.9058 117.541 54.9062 117.541 54.9067C117.541 54.9071 117.541 54.9076 117.541 54.9081C117.541 54.9085 117.541 54.909 117.541 54.9094C117.541 54.9099 117.541 54.9103 117.541 54.9108C117.541 54.9112 117.541 54.9117 117.541 54.9121C117.541 54.9126 117.541 54.913 117.541 54.9135C117.541 54.9139 117.541 54.9144 117.541 54.9148C117.541 54.9153 117.541 54.9157 117.541 54.9162C117.541 54.9166 117.541 54.9171 117.541 54.9175C117.541 54.918 117.541 54.9184 117.541 54.9189C117.541 54.9193 117.541 54.9198 117.541 54.9203C117.541 54.9207 117.541 54.9212 117.541 54.9216C117.541 54.9221 117.541 54.9225 117.541 54.923C117.541 54.9234 117.541 54.9239 117.541 54.9243C117.541 54.9248 117.541 54.9252 117.541 54.9257C117.541 54.9261 117.541 54.9266 117.541 54.927C117.541 54.9275 117.541 54.9279 117.541 54.9284C117.541 54.9288 117.541 54.9293 117.541 54.9297C117.541 54.9302 117.541 54.9306 117.541 54.9311C117.541 54.9315 117.541 54.932 117.541 54.9324C117.541 54.9329 117.541 54.9333 117.541 54.9338C117.541 54.9342 117.541 54.9347 117.541 54.9351C117.541 54.9356 117.541 54.936 117.541 54.9365C117.541 54.937 117.541 54.9374 117.541 54.9379C117.541 54.9383 117.541 54.9388 117.541 54.9392C117.541 54.9397 117.541 54.9401 117.541 54.9406C117.541 54.941 117.541 54.9415 117.541 54.9419C117.541 54.9424 117.541 54.9428 117.541 54.9433C117.541 54.9437 117.541 54.9442 117.541 54.9446C117.541 54.9451 117.541 54.9455 117.541 54.946C117.541 54.9464 117.541 54.9469 117.541 54.9473C117.541 54.9478 117.541 54.9482 117.541 54.9487C117.541 54.9491 117.541 54.9496 117.541 54.95C117.541 54.9505 117.541 54.9509 117.541 54.9514C117.541 54.9518 117.541 54.9523 117.541 54.9527C117.541 54.9532 117.541 54.9536 117.541 54.9541C117.541 54.9545 117.541 54.955 117.541 54.9554C117.541 54.9559 117.541 54.9563 117.541 54.9568C117.541 54.9572 117.541 54.9577 117.541 54.9581C117.541 54.9586 117.541 54.959 117.541 54.9595C117.541 54.9599 117.541 54.9604 117.541 54.9608C117.541 54.9613 117.541 54.9617 117.541 54.9622C117.541 54.9626 117.541 54.9631 117.541 54.9635C117.541 54.964 117.541 54.9644 117.541 54.9649C117.541 54.9653 117.541 54.9658 117.541 54.9662C117.541 54.9667 117.541 54.9671 117.541 54.9676C117.541 54.968 117.541 54.9685 117.541 54.9689C117.541 54.9694 117.541 54.9698 117.541 54.9703C117.541 54.9707 117.541 54.9712 117.541 54.9716C117.541 54.9721 117.541 54.9725 117.541 54.973C117.541 54.9734 117.541 54.9739 117.541 54.9743C117.541 54.9748 117.541 54.9752 117.541 54.9757C117.541 54.9761 117.541 54.9766 117.541 54.977C117.541 54.9775 117.541 54.9779 117.541 54.9784C117.541 54.9788 117.541 54.9793 117.541 54.9797C117.541 54.9802 117.541 54.9806 117.541 54.9811C117.541 54.9815 117.541 54.982 117.541 54.9824C117.541 54.9829 117.541 54.9833 117.541 54.9838C117.541 54.9842 117.541 54.9847 117.541 54.9851C117.541 54.9856 117.541 54.986 117.541 54.9865C117.541 54.9869 117.541 54.9874 117.541 54.9878C117.541 54.9883 117.541 54.9887 117.541 54.9892C117.541 54.9896 117.541 54.9901 117.541 54.9905C117.541 54.991 117.541 54.9914 117.541 54.9918C117.541 54.9923 117.541 54.9927 117.541 54.9932C117.541 54.9936 117.541 54.9941 117.541 54.9945C117.541 54.995 117.541 54.9954 117.541 54.9959C117.541 54.9963 117.541 54.9968 117.541 54.9972C117.541 54.9977 117.541 54.9981 117.541 54.9986C117.541 54.999 117.541 54.9995 117.541 54.9999C117.541 55.0004 117.541 55.0008 117.541 55.0013C117.541 55.0017 117.541 55.0022 117.541 55.0026C117.541 55.0031 117.541 55.0035 117.541 55.004C117.541 55.0044 117.541 55.0049 117.541 55.0053C117.541 55.0058 117.541 55.0062 117.541 55.0067C117.541 55.0071 117.541 55.0076 117.541 55.008C117.541 55.0085 117.541 55.0089 117.541 55.0093C117.541 55.0098 117.541 55.0102 117.541 55.0107C117.541 55.0111 117.541 55.0116 117.541 55.012C117.541 55.0125 117.541 55.0129 117.541 55.0134C117.541 55.0138 117.541 55.0143 117.541 55.0147C117.541 55.0152 117.541 55.0156 117.541 55.0161C117.541 55.0165 117.541 55.017 117.541 55.0174C117.541 55.0179 117.541 55.0183 117.541 55.0188C117.541 55.0192 117.541 55.0197 117.541 55.0201C117.541 55.0206 117.541 55.021 117.541 55.0214C117.541 55.0219 117.541 55.0223 117.541 55.0228C117.541 55.0232 117.541 55.0237 117.541 55.0241C117.541 55.0246 117.541 55.025 117.541 55.0255C117.541 55.0259 117.541 55.0264 117.541 55.0268C117.541 55.0273 117.541 55.0277 117.541 55.0282C117.541 55.0286 117.541 55.0291 117.541 55.0295C117.541 55.03 117.541 55.0304 117.541 55.0308C117.541 55.0313 117.541 55.0317 117.541 55.0322C117.541 55.0326 117.541 55.0331 117.541 55.0335C117.541 55.034 117.541 55.0344 117.541 55.0349C117.541 55.0353 117.541 55.0358 117.541 55.0362C117.541 55.0367 117.541 55.0371 117.541 55.0376C117.541 55.038 117.541 55.0384 117.541 55.0389C117.541 55.0393 117.541 55.0398 117.541 55.0402C117.541 55.0407 117.541 55.0411 117.541 55.0416C117.541 55.042 117.541 55.0425 117.541 55.0429C117.541 55.0434 117.541 55.0438 117.541 55.0443C117.541 55.0447 117.541 55.0452 117.541 55.0456C117.541 55.0461 117.541 55.0465 117.541 55.0469C117.541 55.0474 117.541 55.0478 117.541 55.0483C117.541 55.0487 117.541 55.0492 117.541 55.0496C117.541 55.0501 117.541 55.0505 117.541 55.051C117.541 55.0514 117.541 55.0519 117.541 55.0523C117.541 55.0528 117.541 55.0532 117.541 55.0536C117.541 55.0541 117.541 55.0545 117.541 55.055C117.541 55.0554 117.541 55.0559 117.541 55.0563C117.541 55.0568 117.541 55.0572 117.541 55.0577C117.541 55.0581 117.541 55.0586 117.541 55.059C117.541 55.0594 117.541 55.0599 117.541 55.0603C117.541 55.0608 117.541 55.0612 117.541 55.0617C117.541 55.0621 117.541 55.0626 117.541 55.063C117.541 55.0635 117.541 55.0639 117.541 55.0644C117.541 55.0648 117.541 55.0653 117.541 55.0657C117.541 55.0661 117.541 55.0666 117.541 55.067C117.541 55.0675 117.541 55.0679 117.541 55.0684C117.541 55.0688 117.541 55.0693 117.541 55.0697C117.541 55.0702 117.541 55.0706 117.541 55.071C117.541 55.0715 117.541 55.0719 117.541 55.0724C117.541 55.0728 117.541 55.0733 117.541 55.0737C117.541 55.0742 117.541 55.0746 117.541 55.0751C117.541 55.0755 117.541 55.076 117.541 55.0764C117.541 55.0768 117.541 55.0773 117.541 55.0777C117.541 55.0782 117.541 55.0786 117.541 55.0791C117.541 55.0795 117.541 55.08 117.541 55.0804C117.541 55.0809 117.541 55.0813 117.541 55.0817C117.541 55.0822 117.541 55.0826 117.541 55.0831C117.541 55.0835 117.541 55.084 117.541 55.0844C117.541 55.0849 117.541 55.0853 117.541 55.0858C117.541 55.0862 117.541 55.0866 117.541 55.0871C117.541 55.0875 117.541 55.088 117.541 55.0884C117.541 55.0889 117.541 55.0893 117.541 55.0898C117.541 55.0902 117.541 55.0907 117.541 55.0911C117.541 55.0915 117.541 55.092 117.541 55.0924C117.541 55.0929 117.541 55.0933 117.541 55.0938C117.541 55.0942 117.541 55.0947 117.541 55.0951C117.541 55.0956 117.541 55.096 117.541 55.0964C117.541 55.0969 117.541 55.0973 117.541 55.0978C117.541 55.0982 117.541 55.0987 117.541 55.0991C117.541 55.0996 117.541 55.1 117.541 55.1004C117.541 55.1009 117.541 55.1013 117.541 55.1018C117.541 55.1022 117.541 55.1027 117.541 55.1031C117.541 55.1036 117.541 55.104 117.541 55.1045C117.541 55.1049 117.541 55.1053 117.541 55.1058C117.541 55.1062 117.541 55.1067 117.541 55.1071C117.541 55.1076 117.541 55.108 117.541 55.1085C117.541 55.1089 117.541 55.1093 117.541 55.1098C117.541 55.1102 117.541 55.1107 117.541 55.1111C117.541 55.1116 117.541 55.112 117.541 55.1125C117.541 55.1129 117.541 55.1133 117.541 55.1138C117.541 55.1142 117.541 55.1147 117.541 55.1151C117.541 55.1156 117.541 55.116 117.541 55.1165C117.541 55.1169 117.541 55.1173 117.541 55.1178C117.541 55.1182 117.541 55.1187 117.541 55.1191C117.541 55.1196 117.541 55.12 117.541 55.1205C117.541 55.1209 117.541 55.1213 117.541 55.1218C117.541 55.1222 117.541 55.1227 117.541 55.1231C117.541 55.1236 117.541 55.124 117.541 55.1244C117.541 55.1249 117.541 55.1253 117.541 55.1258C117.541 55.1262 117.541 55.1267 117.541 55.1271C117.541 55.1276 117.541 55.128 117.541 55.1284C117.541 55.1289 117.541 55.1293 117.541 55.1298C117.541 55.1302 117.541 55.1307 117.541 55.1311C117.541 55.1315 117.541 55.132 117.541 55.1324C117.541 55.1329 117.541 55.1333 117.541 55.1338C117.541 55.1342 117.541 55.1346 117.541 55.1351C117.541 55.1355 117.541 55.136 117.541 55.1364C117.541 55.1369 117.541 55.1373 117.541 55.1378C117.541 55.1382 117.541 55.1386 117.541 55.1391C117.541 55.1395 117.541 55.14 117.541 55.1404C117.541 55.1409 117.541 55.1413 117.541 55.1417C117.541 55.1422 117.541 55.1426 117.541 55.1431C117.541 55.1435 117.541 55.144 117.541 55.1444C117.541 55.1448 117.541 55.1453 117.541 55.1457C117.541 55.1462 117.541 55.1466 117.541 55.1471C117.541 55.1475 117.541 55.148 117.541 55.1484C117.541 55.1488 117.541 55.1493 117.541 55.1497C117.541 55.1502 117.541 55.1506 117.541 55.151C117.541 55.1515 117.541 55.1519 117.541 55.1524C117.541 55.1528 117.541 55.1533 117.541 55.1537C117.541 55.1541 117.541 55.1546 117.541 55.155C117.541 55.1555 117.541 55.1559 117.541 55.1564C117.541 55.1568 117.541 55.1573 117.541 55.1577C117.541 55.1581 117.541 55.1586 117.541 55.159H119.541ZM119.541 54.4592C119.541 54.1533 119.517 53.8482 119.469 53.5442L117.493 53.8545C117.525 54.0571 117.541 54.2585 117.541 54.4592H119.541ZM117.837 54.4645L118.812 55.2843L120.099 53.754L119.125 52.9342L117.837 54.4645ZM118.555 54.0837C118.371 54.4642 118.14 54.7656 117.866 55.0033L119.176 56.5145C119.671 56.0856 120.063 55.5606 120.356 54.9547L118.555 54.0837ZM117.866 55.0033C117.587 55.2449 117.253 55.4358 116.851 55.5705L117.487 57.4669C118.119 57.255 118.686 56.9393 119.176 56.5145L117.866 55.0033ZM116.851 55.5705C116.456 55.703 115.977 55.7786 115.399 55.7786V57.7786C116.148 57.7786 116.848 57.681 117.487 57.4669L116.851 55.5705ZM115.399 55.7786C114.666 55.7786 114.017 55.6289 113.436 55.3421L112.551 57.1355C113.428 57.5684 114.383 57.7786 115.399 57.7786V55.7786ZM113.456 55.3521C112.884 55.0541 112.436 54.6528 112.094 54.1427L110.432 55.2556C110.966 56.0518 111.671 56.6769 112.531 57.1255L113.456 55.3521ZM112.099 54.1504C111.781 53.6661 111.607 53.0821 111.607 52.3597H109.607C109.607 53.4235 109.87 54.3992 110.427 55.2478L112.099 54.1504ZM111.607 52.3597C111.607 51.5626 111.805 50.9281 112.164 50.4105L110.521 49.27C109.9 50.1654 109.607 51.2105 109.607 52.3597H111.607ZM112.169 50.4034C112.555 49.8377 113.07 49.3995 113.737 49.0856L112.886 47.2758C111.909 47.735 111.112 48.4032 110.516 49.2772L112.169 50.4034ZM113.749 49.0799C114.421 48.7528 115.184 48.5808 116.055 48.5808V46.5808C114.912 46.5808 113.846 46.8087 112.874 47.2815L113.749 49.0799ZM116.314 49.4001C115.809 49.4001 115.319 49.5005 114.874 49.7353L115.806 51.5049C115.917 51.4464 116.076 51.4001 116.314 51.4001V49.4001ZM114.874 49.7353C114.442 49.9627 114.088 50.2877 113.824 50.6971L115.503 51.7828C115.583 51.659 115.681 51.5707 115.806 51.5049L114.874 49.7353ZM113.817 50.7081C113.535 51.1559 113.425 51.6648 113.425 52.1797H115.425C115.425 51.9481 115.474 51.8305 115.51 51.7718L113.817 50.7081ZM113.425 52.1797C113.425 52.95 113.685 53.657 114.262 54.1923L115.622 52.7265C115.51 52.622 115.425 52.4758 115.425 52.1797H113.425ZM114.275 54.205C114.85 54.7185 115.567 54.9393 116.334 54.9393V52.9393C115.961 52.9393 115.75 52.8402 115.608 52.7138L114.275 54.205ZM116.334 54.9393C116.847 54.9393 117.343 54.8409 117.797 54.6128L116.899 52.8259C116.769 52.8911 116.59 52.9393 116.334 52.9393V54.9393ZM117.797 54.6128C118.25 54.3853 118.621 54.0505 118.883 53.6119L117.165 52.5871C117.109 52.6817 117.03 52.7601 116.899 52.8259L117.797 54.6128ZM118.883 53.6119C119.148 53.1671 119.263 52.6709 119.263 52.1597H117.263C117.263 52.3684 117.218 52.4987 117.165 52.5871L118.883 53.6119ZM119.263 52.1597C119.263 51.6554 119.145 51.1647 118.871 50.7281L117.177 51.7918C117.221 51.8617 117.263 51.9708 117.263 52.1597H119.263ZM118.883 50.7475C118.621 50.3089 118.25 49.9741 117.797 49.7467L116.899 51.5335C117.03 51.5993 117.109 51.6777 117.165 51.7723L118.883 50.7475ZM117.829 49.7633C117.363 49.5081 116.847 49.4001 116.314 49.4001V51.4001C116.576 51.4001 116.749 51.4522 116.867 51.5168L117.829 49.7633Z" fill="black" mask="url(#path-1-inside-1_102_20)"/>
<rect x="1.5" y="2.1553" width="126.109" height="67.6894" rx="7.5" stroke="#FFD500" stroke-width="3"/>
</svg>
