<svg width="58" height="58" viewBox="0 0 58 58" fill="none" xmlns="http://www.w3.org/2000/svg">
<path d="M38.6667 38.6667V7.25H2.41675V38.6667H38.6667ZM38.6667 38.6667H55.5834V26.5833L48.3334 19.3333H38.6667V38.6667ZM19.3334 44.7083C19.3334 48.0451 16.6285 50.75 13.2917 50.75C9.95503 50.75 7.25008 48.0451 7.25008 44.7083C7.25008 41.3716 9.95503 38.6667 13.2917 38.6667C16.6285 38.6667 19.3334 41.3716 19.3334 44.7083ZM50.7501 44.7083C50.7501 48.0451 48.0451 50.75 44.7084 50.75C41.3717 50.75 38.6667 48.0451 38.6667 44.7083C38.6667 41.3716 41.3717 38.6667 44.7084 38.6667C48.0451 38.6667 50.7501 41.3716 50.7501 44.7083Z" stroke="#1E1E1E" stroke-width="4" stroke-linecap="round" stroke-linejoin="round"/>
</svg>
