<svg width="139" height="141" viewBox="0 0 139 141" fill="none" xmlns="http://www.w3.org/2000/svg">
<g filter="url(#filter0_f_314_42)">
<rect width="17.1418" height="34.2836" rx="2" transform="matrix(0 -1 -1 0 80.4575 30.1418)" fill="#FFED92" fill-opacity="0.7"/>
<rect width="17.1418" height="34.2836" rx="2" transform="matrix(0 -1 -1 0 80.4575 107.28)" fill="#FFED92" fill-opacity="0.7"/>
<rect width="17.1418" height="51.4255" rx="2" transform="matrix(-0.919813 -0.392357 -0.392357 0.919813 61.6016 19.7258)" fill="#FFED92" fill-opacity="0.7"/>
<rect x="25.657" y="59.8376" width="17.1418" height="51.4255" rx="2" transform="rotate(-23.1013 25.657 59.8376)" fill="#FFED92" fill-opacity="0.7"/>
</g>
<g filter="url(#filter1_d_314_42)">
<rect width="17.1418" height="34.2836" rx="2" transform="matrix(0 -1 -1 0 72.4575 30.1418)" fill="#FFD500"/>
<rect width="17.1418" height="34.2836" rx="2" transform="matrix(0 -1 -1 0 72.4575 107.28)" fill="#FFD500"/>
<rect width="17.1418" height="51.4255" rx="2" transform="matrix(-0.919813 -0.392357 -0.392357 0.919813 53.9443 19.7258)" fill="#FFD500"/>
<rect x="18" y="59.8376" width="17.1418" height="51.4255" rx="2" transform="rotate(-23.1013 18 59.8376)" fill="#FFD500"/>
</g>
<path d="M66.1818 76.4773C63.3409 76.4773 60.9034 76.0057 58.8693 75.0625C56.8352 74.108 55.3352 72.7955 54.3693 71.125C53.4148 69.4545 53.125 67.5341 53.5 65.3636H62.9091C62.7841 66.0341 62.8693 66.6364 63.1648 67.1705C63.4716 67.6932 63.9375 68.1023 64.5625 68.3977C65.1875 68.6932 65.9091 68.8409 66.7273 68.8409C67.7045 68.8409 68.5852 68.642 69.3693 68.2443C70.1648 67.8466 70.8125 67.3295 71.3125 66.6932C71.8239 66.0568 72.1364 65.3864 72.25 64.6818C72.375 63.9545 72.2557 63.3636 71.892 62.9091C71.5284 62.4432 70.9886 62.1023 70.2727 61.8864C69.5568 61.6591 68.7159 61.5455 67.75 61.5455H64L65.0909 55H68.4318C69.3977 55 70.2841 54.8239 71.0909 54.4716C71.8977 54.1193 72.5682 53.6364 73.1023 53.0227C73.6364 52.3977 73.9659 51.6932 74.0909 50.9091C74.1932 50.3068 74.142 49.7841 73.9375 49.3409C73.7443 48.8864 73.3977 48.5341 72.8977 48.2841C72.4091 48.0341 71.7614 47.9091 70.9545 47.9091C70.0795 47.9091 69.2386 48.0625 68.4318 48.3693C67.625 48.6761 66.9489 49.1023 66.4034 49.6477C65.858 50.1932 65.5341 50.8182 65.4318 51.5227H56.4318C56.7841 49.3864 57.6648 47.5 59.0739 45.8636C60.483 44.2273 62.2557 42.9432 64.392 42.0114C66.5398 41.0795 68.8864 40.6136 71.4318 40.6136C74.0909 40.6136 76.3523 41.1023 78.2159 42.0795C80.0795 43.0568 81.4489 44.3523 82.3239 45.9659C83.1989 47.5795 83.4773 49.3409 83.1591 51.25C82.8182 53.3068 81.892 54.8636 80.3807 55.9205C78.8693 56.9773 76.9773 57.6023 74.7045 57.7955V58.0682C77.1818 58.3523 79.0966 59.2614 80.4489 60.7955C81.8011 62.3295 82.2955 64.2159 81.9318 66.4545C81.625 68.3636 80.7443 70.0739 79.2898 71.5852C77.8352 73.0966 75.9716 74.2898 73.6989 75.1648C71.4375 76.0398 68.9318 76.4773 66.1818 76.4773Z" fill="black"/>
<g filter="url(#filter2_d_314_42)">
<rect width="17" height="60" rx="2" transform="matrix(-1 0 0 1 110.458 30)" fill="#FFD500"/>
</g>
<defs>
<filter id="filter0_f_314_42" x="22.2808" y="9" width="62.1768" height="102.28" filterUnits="userSpaceOnUse" color-interpolation-filters="sRGB">
<feFlood flood-opacity="0" result="BackgroundImageFix"/>
<feBlend mode="normal" in="SourceGraphic" in2="BackgroundImageFix" result="shape"/>
<feGaussianBlur stdDeviation="2" result="effect1_foregroundBlur_314_42"/>
</filter>
<filter id="filter1_d_314_42" x="0.623779" y="0" width="99.8337" height="140.28" filterUnits="userSpaceOnUse" color-interpolation-filters="sRGB">
<feFlood flood-opacity="0" result="BackgroundImageFix"/>
<feColorMatrix in="SourceAlpha" type="matrix" values="0 0 0 0 0 0 0 0 0 0 0 0 0 0 0 0 0 0 127 0" result="hardAlpha"/>
<feOffset dx="5" dy="10"/>
<feGaussianBlur stdDeviation="11.5"/>
<feComposite in2="hardAlpha" operator="out"/>
<feColorMatrix type="matrix" values="0 0 0 0 0 0 0 0 0 0 0 0 0 0 0 0 0 0 0.25 0"/>
<feBlend mode="normal" in2="BackgroundImageFix" result="effect1_dropShadow_314_42"/>
<feBlend mode="normal" in="SourceGraphic" in2="effect1_dropShadow_314_42" result="shape"/>
</filter>
<filter id="filter2_d_314_42" x="75.4575" y="17" width="63" height="106" filterUnits="userSpaceOnUse" color-interpolation-filters="sRGB">
<feFlood flood-opacity="0" result="BackgroundImageFix"/>
<feColorMatrix in="SourceAlpha" type="matrix" values="0 0 0 0 0 0 0 0 0 0 0 0 0 0 0 0 0 0 127 0" result="hardAlpha"/>
<feOffset dx="5" dy="10"/>
<feGaussianBlur stdDeviation="11.5"/>
<feComposite in2="hardAlpha" operator="out"/>
<feColorMatrix type="matrix" values="0 0 0 0 0 0 0 0 0 0 0 0 0 0 0 0 0 0 0.25 0"/>
<feBlend mode="normal" in2="BackgroundImageFix" result="effect1_dropShadow_314_42"/>
<feBlend mode="normal" in="SourceGraphic" in2="effect1_dropShadow_314_42" result="shape"/>
</filter>
</defs>
</svg>
