<svg width="138" height="141" viewBox="0 0 138 141" fill="none" xmlns="http://www.w3.org/2000/svg">
<g filter="url(#filter0_f_310_37)">
<rect x="48" y="30.1418" width="17.1418" height="34.2836" rx="2" transform="rotate(-90 48 30.1418)" fill="#FFED92" fill-opacity="0.7"/>
<rect x="48" y="107.28" width="17.1418" height="34.2836" rx="2" transform="rotate(-90 48 107.28)" fill="#FFED92" fill-opacity="0.7"/>
<rect x="66.856" y="19.7257" width="17.1418" height="51.4255" rx="2" transform="rotate(-23.1013 66.856 19.7257)" fill="#FFED92" fill-opacity="0.7"/>
<rect width="17.1418" height="51.4255" rx="2" transform="matrix(-0.919813 -0.392357 -0.392357 0.919813 102.8 59.8376)" fill="#FFED92" fill-opacity="0.7"/>
</g>
<rect x="10" y="30" width="17" height="60" rx="2" fill="#FFED92" fill-opacity="0.7"/>
<g filter="url(#filter1_d_310_37)">
<rect x="56" y="30.1418" width="17.1418" height="34.2836" rx="2" transform="rotate(-90 56 30.1418)" fill="#FFD500"/>
<rect x="56" y="107.28" width="17.1418" height="34.2836" rx="2" transform="rotate(-90 56 107.28)" fill="#FFD500"/>
<rect x="74.5132" y="19.7257" width="17.1418" height="51.4255" rx="2" transform="rotate(-23.1013 74.5132 19.7257)" fill="#FFD500"/>
<rect width="17.1418" height="51.4255" rx="2" transform="matrix(-0.919813 -0.392357 -0.392357 0.919813 110.458 59.8376)" fill="#FFD500"/>
</g>
<path d="M67.0455 41.0909L61.25 76H51.7727L56.1364 49.8182H55.9318L47.5455 54.3864L48.8409 46.3409L58.3182 41.0909H67.0455Z" fill="black"/>
<g filter="url(#filter2_d_310_37)">
<rect x="18" y="30" width="17" height="60" rx="2" fill="#FFD500"/>
</g>
<defs>
<filter id="filter0_f_310_37" x="44" y="9" width="62.1768" height="102.28" filterUnits="userSpaceOnUse" color-interpolation-filters="sRGB">
<feFlood flood-opacity="0" result="BackgroundImageFix"/>
<feBlend mode="normal" in="SourceGraphic" in2="BackgroundImageFix" result="shape"/>
<feGaussianBlur stdDeviation="2" result="effect1_foregroundBlur_310_37"/>
</filter>
<filter id="filter1_d_310_37" x="38" y="0" width="99.834" height="140.28" filterUnits="userSpaceOnUse" color-interpolation-filters="sRGB">
<feFlood flood-opacity="0" result="BackgroundImageFix"/>
<feColorMatrix in="SourceAlpha" type="matrix" values="0 0 0 0 0 0 0 0 0 0 0 0 0 0 0 0 0 0 127 0" result="hardAlpha"/>
<feOffset dx="5" dy="10"/>
<feGaussianBlur stdDeviation="11.5"/>
<feComposite in2="hardAlpha" operator="out"/>
<feColorMatrix type="matrix" values="0 0 0 0 0 0 0 0 0 0 0 0 0 0 0 0 0 0 0.25 0"/>
<feBlend mode="normal" in2="BackgroundImageFix" result="effect1_dropShadow_310_37"/>
<feBlend mode="normal" in="SourceGraphic" in2="effect1_dropShadow_310_37" result="shape"/>
</filter>
<filter id="filter2_d_310_37" x="0" y="17" width="63" height="106" filterUnits="userSpaceOnUse" color-interpolation-filters="sRGB">
<feFlood flood-opacity="0" result="BackgroundImageFix"/>
<feColorMatrix in="SourceAlpha" type="matrix" values="0 0 0 0 0 0 0 0 0 0 0 0 0 0 0 0 0 0 127 0" result="hardAlpha"/>
<feOffset dx="5" dy="10"/>
<feGaussianBlur stdDeviation="11.5"/>
<feComposite in2="hardAlpha" operator="out"/>
<feColorMatrix type="matrix" values="0 0 0 0 0 0 0 0 0 0 0 0 0 0 0 0 0 0 0.25 0"/>
<feBlend mode="normal" in2="BackgroundImageFix" result="effect1_dropShadow_310_37"/>
<feBlend mode="normal" in="SourceGraphic" in2="effect1_dropShadow_310_37" result="shape"/>
</filter>
</defs>
</svg>
