<svg width="139" height="141" viewBox="0 0 139 141" fill="none" xmlns="http://www.w3.org/2000/svg">
<g filter="url(#filter0_f_323_45)">
<rect width="17.1418" height="34.2836" rx="2" transform="matrix(0 -1 -1 0 80.4575 30.1418)" fill="#FFED92" fill-opacity="0.7"/>
<rect width="17.1418" height="34.2836" rx="2" transform="matrix(0 -1 -1 0 80.4575 107.28)" fill="#FFED92" fill-opacity="0.7"/>
<rect width="17.1418" height="51.4255" rx="2" transform="matrix(-0.919813 -0.392357 -0.392357 0.919813 61.6016 19.7258)" fill="#FFED92" fill-opacity="0.7"/>
<rect x="25.657" y="59.8376" width="17.1418" height="51.4255" rx="2" transform="rotate(-23.1013 25.657 59.8376)" fill="#FFED92" fill-opacity="0.7"/>
</g>
<g filter="url(#filter1_d_323_45)">
<rect width="17.1418" height="34.2836" rx="2" transform="matrix(0 -1 -1 0 72.4575 30.1418)" fill="#FFD500"/>
<rect width="17.1418" height="34.2836" rx="2" transform="matrix(0 -1 -1 0 72.4575 107.28)" fill="#FFD500"/>
<rect width="17.1418" height="51.4255" rx="2" transform="matrix(-0.919813 -0.392357 -0.392357 0.919813 53.9443 19.7258)" fill="#FFD500"/>
<rect x="18" y="59.8376" width="17.1418" height="51.4255" rx="2" transform="rotate(-23.1013 18 59.8376)" fill="#FFD500"/>
</g>
<path d="M52.6818 70.5455L53.9091 63.1818L71.6364 41.0909H78.3182L76.6818 50.9091H72.8636L63.3182 62.9091L63.25 63.1818H83.9773L82.75 70.5455H52.6818ZM68.7727 76L70.0682 68.2955L70.8182 65.0909L74.7727 41.0909H83.6364L77.8409 76H68.7727Z" fill="black"/>
<rect width="17" height="60" rx="2" transform="matrix(-1 0 0 1 118.458 30)" fill="#FFED92" fill-opacity="0.7"/>
<g filter="url(#filter2_d_323_45)">
<rect width="17" height="60" rx="2" transform="matrix(-1 0 0 1 110.458 30)" fill="#FFD500"/>
</g>
<defs>
<filter id="filter0_f_323_45" x="22.2808" y="9" width="62.1768" height="102.28" filterUnits="userSpaceOnUse" color-interpolation-filters="sRGB">
<feFlood flood-opacity="0" result="BackgroundImageFix"/>
<feBlend mode="normal" in="SourceGraphic" in2="BackgroundImageFix" result="shape"/>
<feGaussianBlur stdDeviation="2" result="effect1_foregroundBlur_323_45"/>
</filter>
<filter id="filter1_d_323_45" x="0.623779" y="0" width="99.8337" height="140.28" filterUnits="userSpaceOnUse" color-interpolation-filters="sRGB">
<feFlood flood-opacity="0" result="BackgroundImageFix"/>
<feColorMatrix in="SourceAlpha" type="matrix" values="0 0 0 0 0 0 0 0 0 0 0 0 0 0 0 0 0 0 127 0" result="hardAlpha"/>
<feOffset dx="5" dy="10"/>
<feGaussianBlur stdDeviation="11.5"/>
<feComposite in2="hardAlpha" operator="out"/>
<feColorMatrix type="matrix" values="0 0 0 0 0 0 0 0 0 0 0 0 0 0 0 0 0 0 0.25 0"/>
<feBlend mode="normal" in2="BackgroundImageFix" result="effect1_dropShadow_323_45"/>
<feBlend mode="normal" in="SourceGraphic" in2="effect1_dropShadow_323_45" result="shape"/>
</filter>
<filter id="filter2_d_323_45" x="75.4575" y="17" width="63" height="106" filterUnits="userSpaceOnUse" color-interpolation-filters="sRGB">
<feFlood flood-opacity="0" result="BackgroundImageFix"/>
<feColorMatrix in="SourceAlpha" type="matrix" values="0 0 0 0 0 0 0 0 0 0 0 0 0 0 0 0 0 0 127 0" result="hardAlpha"/>
<feOffset dx="5" dy="10"/>
<feGaussianBlur stdDeviation="11.5"/>
<feComposite in2="hardAlpha" operator="out"/>
<feColorMatrix type="matrix" values="0 0 0 0 0 0 0 0 0 0 0 0 0 0 0 0 0 0 0.25 0"/>
<feBlend mode="normal" in2="BackgroundImageFix" result="effect1_dropShadow_323_45"/>
<feBlend mode="normal" in="SourceGraphic" in2="effect1_dropShadow_323_45" result="shape"/>
</filter>
</defs>
</svg>
