<svg width="139" height="141" viewBox="0 0 139 141" fill="none" xmlns="http://www.w3.org/2000/svg">
<g filter="url(#filter0_f_314_42)">
<rect width="17.1418" height="34.2836" rx="2" transform="matrix(0 -1 -1 0 80.4575 30.1418)" fill="#FFED92" fill-opacity="0.7"/>
<rect width="17.1418" height="34.2836" rx="2" transform="matrix(0 -1 -1 0 80.4575 107.28)" fill="#FFED92" fill-opacity="0.7"/>
<rect width="17.1418" height="51.4255" rx="2" transform="matrix(-0.919813 -0.392357 -0.392357 0.919813 61.6016 19.7258)" fill="#FFED92" fill-opacity="0.7"/>
<rect x="25.657" y="59.8376" width="17.1418" height="51.4255" rx="2" transform="rotate(-23.1013 25.657 59.8376)" fill="#FFED92" fill-opacity="0.7"/>
</g>
<g filter="url(#filter1_d_314_42)">
<rect width="17.1418" height="34.2836" rx="2" transform="matrix(0 -1 -1 0 72.4575 30.1418)" fill="#FFD500"/>
<rect width="17.1418" height="34.2836" rx="2" transform="matrix(0 -1 -1 0 72.4575 107.28)" fill="#FFD500"/>
<rect width="17.1418" height="51.4255" rx="2" transform="matrix(-0.919813 -0.392357 -0.392357 0.919813 53.9443 19.7258)" fill="#FFD500"/>
<rect x="18" y="59.8376" width="17.1418" height="51.4255" rx="2" transform="rotate(-23.1013 18 59.8376)" fill="#FFD500"/>
</g>
<path d="M75.0455 41.0909L69.25 76H59.7727L64.1364 49.8182H63.9318L55.5455 54.3864L56.8409 46.3409L66.3182 41.0909H75.0455Z" fill="black"/>
<g filter="url(#filter2_d_314_42)">
<rect width="17" height="60" rx="2" transform="matrix(-1 0 0 1 110.458 30)" fill="#FFD500"/>
</g>
<defs>
<filter id="filter0_f_314_42" x="22.2808" y="9" width="62.1768" height="102.28" filterUnits="userSpaceOnUse" color-interpolation-filters="sRGB">
<feFlood flood-opacity="0" result="BackgroundImageFix"/>
<feBlend mode="normal" in="SourceGraphic" in2="BackgroundImageFix" result="shape"/>
<feGaussianBlur stdDeviation="2" result="effect1_foregroundBlur_314_42"/>
</filter>
<filter id="filter1_d_314_42" x="0.623779" y="0" width="99.8337" height="140.28" filterUnits="userSpaceOnUse" color-interpolation-filters="sRGB">
<feFlood flood-opacity="0" result="BackgroundImageFix"/>
<feColorMatrix in="SourceAlpha" type="matrix" values="0 0 0 0 0 0 0 0 0 0 0 0 0 0 0 0 0 0 127 0" result="hardAlpha"/>
<feOffset dx="5" dy="10"/>
<feGaussianBlur stdDeviation="11.5"/>
<feComposite in2="hardAlpha" operator="out"/>
<feColorMatrix type="matrix" values="0 0 0 0 0 0 0 0 0 0 0 0 0 0 0 0 0 0 0.25 0"/>
<feBlend mode="normal" in2="BackgroundImageFix" result="effect1_dropShadow_314_42"/>
<feBlend mode="normal" in="SourceGraphic" in2="effect1_dropShadow_314_42" result="shape"/>
</filter>
<filter id="filter2_d_314_42" x="75.4575" y="17" width="63" height="106" filterUnits="userSpaceOnUse" color-interpolation-filters="sRGB">
<feFlood flood-opacity="0" result="BackgroundImageFix"/>
<feColorMatrix in="SourceAlpha" type="matrix" values="0 0 0 0 0 0 0 0 0 0 0 0 0 0 0 0 0 0 127 0" result="hardAlpha"/>
<feOffset dx="5" dy="10"/>
<feGaussianBlur stdDeviation="11.5"/>
<feComposite in2="hardAlpha" operator="out"/>
<feColorMatrix type="matrix" values="0 0 0 0 0 0 0 0 0 0 0 0 0 0 0 0 0 0 0.25 0"/>
<feBlend mode="normal" in2="BackgroundImageFix" result="effect1_dropShadow_314_42"/>
<feBlend mode="normal" in="SourceGraphic" in2="effect1_dropShadow_314_42" result="shape"/>
</filter>
</defs>
</svg>
