<svg width="213" height="321" viewBox="0 0 213 321" fill="none" xmlns="http://www.w3.org/2000/svg">
<g filter="url(#filter0_f_323_43)">
<rect x="4" y="63" width="50" height="100" rx="2" transform="rotate(-90 4 63)" fill="#FFED92" fill-opacity="0.7"/>
<rect x="4" y="288" width="50" height="100" rx="2" transform="rotate(-90 4 288)" fill="#FFED92" fill-opacity="0.7"/>
<rect x="59" y="32.6179" width="50" height="150" rx="2" transform="rotate(-23.1013 59 32.6179)" fill="#FFED92" fill-opacity="0.7"/>
<rect width="50" height="150" rx="2" transform="matrix(-0.919813 -0.392357 -0.392357 0.919813 163.844 149.618)" fill="#FFED92" fill-opacity="0.7"/>
</g>
<g filter="url(#filter1_d_323_43)">
<rect x="26" y="63" width="50" height="100" rx="2" transform="rotate(-90 26 63)" fill="#FFD500"/>
<rect x="24" y="288" width="50" height="100" rx="2" transform="rotate(-90 24 288)" fill="#FFD500"/>
<rect x="80" y="32.6179" width="50" height="150" rx="2" transform="rotate(-23.1013 80 32.6179)" fill="#FFD500"/>
<path d="M184.06 151.458C184.493 150.442 184.021 149.267 183.005 148.833L140.693 130.785C139.677 130.351 138.502 130.824 138.069 131.84L80.7847 266.132C80.3513 267.148 80.8236 268.323 81.8396 268.757L124.151 286.805C125.167 287.239 126.342 286.766 126.775 285.75L184.06 151.458Z" fill="#FFD500"/>
</g>
<path d="M77 171L68.3 162.3M73 151C73 159.837 65.8366 167 57 167C48.1634 167 41 159.837 41 151C41 142.163 48.1634 135 57 135C65.8366 135 73 142.163 73 151Z" stroke="#1E1E1E" stroke-width="4" stroke-linecap="round" stroke-linejoin="round"/>
<defs>
<filter id="filter0_f_323_43" x="0" y="9" width="167.22" height="283" filterUnits="userSpaceOnUse" color-interpolation-filters="sRGB">
<feFlood flood-opacity="0" result="BackgroundImageFix"/>
<feBlend mode="normal" in="SourceGraphic" in2="BackgroundImageFix" result="shape"/>
<feGaussianBlur stdDeviation="2" result="effect1_foregroundBlur_323_43"/>
</filter>
<filter id="filter1_d_323_43" x="6" y="0" width="206.22" height="321" filterUnits="userSpaceOnUse" color-interpolation-filters="sRGB">
<feFlood flood-opacity="0" result="BackgroundImageFix"/>
<feColorMatrix in="SourceAlpha" type="matrix" values="0 0 0 0 0 0 0 0 0 0 0 0 0 0 0 0 0 0 127 0" result="hardAlpha"/>
<feOffset dx="5" dy="10"/>
<feGaussianBlur stdDeviation="11.5"/>
<feComposite in2="hardAlpha" operator="out"/>
<feColorMatrix type="matrix" values="0 0 0 0 0 0 0 0 0 0 0 0 0 0 0 0 0 0 0.25 0"/>
<feBlend mode="normal" in2="BackgroundImageFix" result="effect1_dropShadow_323_43"/>
<feBlend mode="normal" in="SourceGraphic" in2="effect1_dropShadow_323_43" result="shape"/>
</filter>
</defs>
</svg>
